%
M48
M72
T01C0.0320
T02C0.0400
T03C0.0460
%
T01
X1525Y4217
X4025Y5417
X5525Y4217
X6525Y4217
X9025Y5417
X10525Y6017
X10525Y7017
X10525Y8017
X10525Y9017
X9025Y9417
X11025Y10517
X13025Y10517
X13525Y9017
X13525Y8017
X13525Y7017
X13525Y6017
X11525Y4217
X10525Y4217
X7525Y7417
X6525Y7417
X4025Y9417
X2525Y7417
X1525Y7417
X15525Y4217
X16525Y4217
X20525Y4217
T02
X2245Y1327
X4805Y1327
X7245Y1327
X9805Y1327
X12245Y1327
X14805Y1327
X17245Y1327
X17245Y3107
X14805Y3107
X12245Y3107
X9805Y3107
X7245Y3107
X4805Y3107
X2245Y3107
X19805Y3107
X19805Y1327
T03
X18982Y5438
X17782Y5438
X17782Y13638
X18982Y13638
M30
