G75*
%MOIN*%
%OFA0B0*%
%FSLAX24Y24*%
%IPPOS*%
%LPD*%
%AMOC8*
5,1,8,0,0,1.08239X$1,22.5*
%
%ADD10R,0.0560X0.0560*%
%ADD11C,0.0560*%
%ADD12OC8,0.0560*%
%ADD13C,0.0680*%
%ADD14C,0.0592*%
%ADD15C,0.0980*%
%ADD16R,0.0356X0.0434*%
D10*
X010525Y009017D03*
D11*
X010525Y008017D03*
X010525Y007017D03*
X010525Y006017D03*
X013525Y006017D03*
X013525Y007017D03*
X013525Y008017D03*
X013525Y009017D03*
D12*
X013025Y010517D03*
X011025Y010517D03*
X009025Y009417D03*
X007525Y007417D03*
X006525Y007417D03*
X004025Y009417D03*
X002525Y007417D03*
X001525Y007417D03*
X004025Y005417D03*
X005525Y004217D03*
X006525Y004217D03*
X009025Y005417D03*
X010525Y004217D03*
X011525Y004217D03*
X015525Y004217D03*
X016525Y004217D03*
X020525Y004217D03*
X001525Y004217D03*
D13*
X001945Y001327D02*
X002545Y001327D01*
X004505Y001327D02*
X005105Y001327D01*
X006945Y001327D02*
X007545Y001327D01*
X009505Y001327D02*
X010105Y001327D01*
X011945Y001327D02*
X012545Y001327D01*
X014505Y001327D02*
X015105Y001327D01*
X016945Y001327D02*
X017545Y001327D01*
X019505Y001327D02*
X020105Y001327D01*
X020105Y003107D02*
X019505Y003107D01*
X017545Y003107D02*
X016945Y003107D01*
X015105Y003107D02*
X014505Y003107D01*
X012545Y003107D02*
X011945Y003107D01*
X010105Y003107D02*
X009505Y003107D01*
X007545Y003107D02*
X006945Y003107D01*
X005105Y003107D02*
X004505Y003107D01*
X002545Y003107D02*
X001945Y003107D01*
D14*
X001325Y010017D03*
X001325Y011017D03*
X001325Y012017D03*
X001325Y013017D03*
D15*
X017782Y013638D03*
X018982Y013638D03*
X018982Y005438D03*
X017782Y005438D03*
D16*
X012281Y007517D03*
X011769Y007517D03*
M02*
