G75*
%MOIN*%
%OFA0B0*%
%FSLAX24Y24*%
%IPPOS*%
%LPD*%
%AMOC8*
5,1,8,0,0,1.08239X$1,22.5*
%
%ADD10R,0.0248X0.0005*%
%ADD11R,0.0454X0.0005*%
%ADD12R,0.0589X0.0005*%
%ADD13R,0.0702X0.0005*%
%ADD14R,0.0799X0.0005*%
%ADD15R,0.0875X0.0005*%
%ADD16R,0.0950X0.0005*%
%ADD17R,0.1026X0.0005*%
%ADD18R,0.1091X0.0005*%
%ADD19R,0.1156X0.0005*%
%ADD20R,0.1210X0.0005*%
%ADD21R,0.1269X0.0005*%
%ADD22R,0.1318X0.0005*%
%ADD23R,0.1372X0.0005*%
%ADD24R,0.1420X0.0005*%
%ADD25R,0.1469X0.0005*%
%ADD26R,0.1512X0.0005*%
%ADD27R,0.1555X0.0005*%
%ADD28R,0.1598X0.0005*%
%ADD29R,0.1642X0.0005*%
%ADD30R,0.1685X0.0005*%
%ADD31R,0.1723X0.0005*%
%ADD32R,0.1760X0.0005*%
%ADD33R,0.1804X0.0005*%
%ADD34R,0.1836X0.0005*%
%ADD35R,0.1874X0.0005*%
%ADD36R,0.1912X0.0005*%
%ADD37R,0.1944X0.0005*%
%ADD38R,0.1976X0.0005*%
%ADD39R,0.2009X0.0005*%
%ADD40R,0.2041X0.0005*%
%ADD41R,0.2074X0.0005*%
%ADD42R,0.2106X0.0005*%
%ADD43R,0.2138X0.0005*%
%ADD44R,0.2171X0.0005*%
%ADD45R,0.2203X0.0005*%
%ADD46R,0.2236X0.0005*%
%ADD47R,0.2257X0.0005*%
%ADD48R,0.2290X0.0005*%
%ADD49R,0.2317X0.0005*%
%ADD50R,0.2344X0.0005*%
%ADD51R,0.2376X0.0005*%
%ADD52R,0.2398X0.0005*%
%ADD53R,0.2430X0.0005*%
%ADD54R,0.2452X0.0005*%
%ADD55R,0.2479X0.0005*%
%ADD56R,0.2506X0.0005*%
%ADD57R,0.2527X0.0005*%
%ADD58R,0.2560X0.0005*%
%ADD59R,0.1134X0.0005*%
%ADD60R,0.0243X0.0005*%
%ADD61R,0.1096X0.0005*%
%ADD62R,0.1069X0.0005*%
%ADD63R,0.0238X0.0005*%
%ADD64R,0.1031X0.0005*%
%ADD65R,0.1021X0.0005*%
%ADD66R,0.0238X0.0005*%
%ADD67R,0.0983X0.0005*%
%ADD68R,0.0988X0.0005*%
%ADD69R,0.0961X0.0005*%
%ADD70R,0.0918X0.0005*%
%ADD71R,0.0929X0.0005*%
%ADD72R,0.0891X0.0005*%
%ADD73R,0.0907X0.0005*%
%ADD74R,0.0869X0.0005*%
%ADD75R,0.0886X0.0005*%
%ADD76R,0.0848X0.0005*%
%ADD77R,0.0832X0.0005*%
%ADD78R,0.0853X0.0005*%
%ADD79R,0.0815X0.0005*%
%ADD80R,0.0837X0.0005*%
%ADD81R,0.0794X0.0005*%
%ADD82R,0.0821X0.0005*%
%ADD83R,0.0783X0.0005*%
%ADD84R,0.0805X0.0005*%
%ADD85R,0.0767X0.0005*%
%ADD86R,0.0756X0.0005*%
%ADD87R,0.0740X0.0005*%
%ADD88R,0.0772X0.0005*%
%ADD89R,0.0729X0.0005*%
%ADD90R,0.0718X0.0005*%
%ADD91R,0.0751X0.0005*%
%ADD92R,0.0707X0.0005*%
%ADD93R,0.0740X0.0005*%
%ADD94R,0.0702X0.0005*%
%ADD95R,0.0691X0.0005*%
%ADD96R,0.0680X0.0005*%
%ADD97R,0.0670X0.0005*%
%ADD98R,0.0702X0.0005*%
%ADD99R,0.0659X0.0005*%
%ADD100R,0.0653X0.0005*%
%ADD101R,0.0686X0.0005*%
%ADD102R,0.0648X0.0005*%
%ADD103R,0.0643X0.0005*%
%ADD104R,0.0670X0.0005*%
%ADD105R,0.0637X0.0005*%
%ADD106R,0.0664X0.0005*%
%ADD107R,0.0626X0.0005*%
%ADD108R,0.0621X0.0005*%
%ADD109R,0.0653X0.0005*%
%ADD110R,0.0616X0.0005*%
%ADD111R,0.0610X0.0005*%
%ADD112R,0.0637X0.0005*%
%ADD113R,0.0599X0.0005*%
%ADD114R,0.0632X0.0005*%
%ADD115R,0.0594X0.0005*%
%ADD116R,0.0621X0.0005*%
%ADD117R,0.0589X0.0005*%
%ADD118R,0.0616X0.0005*%
%ADD119R,0.0578X0.0005*%
%ADD120R,0.0572X0.0005*%
%ADD121R,0.0605X0.0005*%
%ADD122R,0.0567X0.0005*%
%ADD123R,0.0605X0.0005*%
%ADD124R,0.0562X0.0005*%
%ADD125R,0.0551X0.0005*%
%ADD126R,0.0578X0.0005*%
%ADD127R,0.0540X0.0005*%
%ADD128R,0.0540X0.0005*%
%ADD129R,0.0535X0.0005*%
%ADD130R,0.0529X0.0005*%
%ADD131R,0.0524X0.0005*%
%ADD132R,0.0556X0.0005*%
%ADD133R,0.0518X0.0005*%
%ADD134R,0.0518X0.0005*%
%ADD135R,0.0545X0.0005*%
%ADD136R,0.0508X0.0005*%
%ADD137R,0.0545X0.0005*%
%ADD138R,0.0508X0.0005*%
%ADD139R,0.0502X0.0005*%
%ADD140R,0.0497X0.0005*%
%ADD141R,0.0491X0.0005*%
%ADD142R,0.0529X0.0005*%
%ADD143R,0.0524X0.0005*%
%ADD144R,0.0486X0.0005*%
%ADD145R,0.0486X0.0005*%
%ADD146R,0.0481X0.0005*%
%ADD147R,0.0513X0.0005*%
%ADD148R,0.0481X0.0005*%
%ADD149R,0.0475X0.0005*%
%ADD150R,0.0470X0.0005*%
%ADD151R,0.0508X0.0005*%
%ADD152R,0.0464X0.0005*%
%ADD153R,0.0502X0.0005*%
%ADD154R,0.0464X0.0005*%
%ADD155R,0.0497X0.0005*%
%ADD156R,0.0459X0.0005*%
%ADD157R,0.0459X0.0005*%
%ADD158R,0.0448X0.0005*%
%ADD159R,0.0481X0.0005*%
%ADD160R,0.0443X0.0005*%
%ADD161R,0.0443X0.0005*%
%ADD162R,0.0437X0.0005*%
%ADD163R,0.0432X0.0005*%
%ADD164R,0.0432X0.0005*%
%ADD165R,0.0427X0.0005*%
%ADD166R,0.0427X0.0005*%
%ADD167R,0.0421X0.0005*%
%ADD168R,0.0416X0.0005*%
%ADD169R,0.0421X0.0005*%
%ADD170R,0.0448X0.0005*%
%ADD171R,0.0410X0.0005*%
%ADD172R,0.0410X0.0005*%
%ADD173R,0.0443X0.0005*%
%ADD174R,0.0405X0.0005*%
%ADD175R,0.0400X0.0005*%
%ADD176R,0.0437X0.0005*%
%ADD177R,0.0400X0.0005*%
%ADD178R,0.0394X0.0005*%
%ADD179R,0.0389X0.0005*%
%ADD180R,0.0389X0.0005*%
%ADD181R,0.0383X0.0005*%
%ADD182R,0.0383X0.0005*%
%ADD183R,0.0378X0.0005*%
%ADD184R,0.0416X0.0005*%
%ADD185R,0.0378X0.0005*%
%ADD186R,0.0373X0.0005*%
%ADD187R,0.0373X0.0005*%
%ADD188R,0.0367X0.0005*%
%ADD189R,0.0405X0.0005*%
%ADD190R,0.0367X0.0005*%
%ADD191R,0.0362X0.0005*%
%ADD192R,0.0362X0.0005*%
%ADD193R,0.0362X0.0005*%
%ADD194R,0.0356X0.0005*%
%ADD195R,0.0351X0.0005*%
%ADD196R,0.0351X0.0005*%
%ADD197R,0.0346X0.0005*%
%ADD198R,0.0383X0.0005*%
%ADD199R,0.0346X0.0005*%
%ADD200R,0.0340X0.0005*%
%ADD201R,0.0340X0.0005*%
%ADD202R,0.0335X0.0005*%
%ADD203R,0.3699X0.0005*%
%ADD204R,0.0335X0.0005*%
%ADD205R,0.0329X0.0005*%
%ADD206R,0.3699X0.0005*%
%ADD207R,0.0329X0.0005*%
%ADD208R,0.0324X0.0005*%
%ADD209R,0.0324X0.0005*%
%ADD210R,0.0324X0.0005*%
%ADD211R,0.0940X0.0005*%
%ADD212R,0.0319X0.0005*%
%ADD213R,0.0356X0.0005*%
%ADD214R,0.0356X0.0005*%
%ADD215R,0.0950X0.0005*%
%ADD216R,0.0319X0.0005*%
%ADD217R,0.0956X0.0005*%
%ADD218R,0.0961X0.0005*%
%ADD219R,0.0967X0.0005*%
%ADD220R,0.0313X0.0005*%
%ADD221R,0.0972X0.0005*%
%ADD222R,0.0977X0.0005*%
%ADD223R,0.0994X0.0005*%
%ADD224R,0.0999X0.0005*%
%ADD225R,0.0313X0.0005*%
%ADD226R,0.1004X0.0005*%
%ADD227R,0.1010X0.0005*%
%ADD228R,0.1015X0.0005*%
%ADD229R,0.1021X0.0005*%
%ADD230R,0.1031X0.0005*%
%ADD231R,0.0308X0.0005*%
%ADD232R,0.1037X0.0005*%
%ADD233R,0.0346X0.0005*%
%ADD234R,0.1042X0.0005*%
%ADD235R,0.1048X0.0005*%
%ADD236R,0.0346X0.0005*%
%ADD237R,0.1053X0.0005*%
%ADD238R,0.1058X0.0005*%
%ADD239R,0.1064X0.0005*%
%ADD240R,0.0308X0.0005*%
%ADD241R,0.1069X0.0005*%
%ADD242R,0.1075X0.0005*%
%ADD243R,0.1080X0.0005*%
%ADD244R,0.1085X0.0005*%
%ADD245R,0.0302X0.0005*%
%ADD246R,0.1091X0.0005*%
%ADD247R,0.0302X0.0005*%
%ADD248R,0.1102X0.0005*%
%ADD249R,0.1107X0.0005*%
%ADD250R,0.1112X0.0005*%
%ADD251R,0.1118X0.0005*%
%ADD252R,0.0297X0.0005*%
%ADD253R,0.1123X0.0005*%
%ADD254R,0.1129X0.0005*%
%ADD255R,0.0335X0.0005*%
%ADD256R,0.1134X0.0005*%
%ADD257R,0.0297X0.0005*%
%ADD258R,0.1139X0.0005*%
%ADD259R,0.0297X0.0005*%
%ADD260R,0.1145X0.0005*%
%ADD261R,0.1150X0.0005*%
%ADD262R,0.1156X0.0005*%
%ADD263R,0.1161X0.0005*%
%ADD264R,0.1166X0.0005*%
%ADD265R,0.1172X0.0005*%
%ADD266R,0.1177X0.0005*%
%ADD267R,0.0297X0.0005*%
%ADD268R,0.1183X0.0005*%
%ADD269R,0.0292X0.0005*%
%ADD270R,0.1188X0.0005*%
%ADD271R,0.1193X0.0005*%
%ADD272R,0.1199X0.0005*%
%ADD273R,0.1204X0.0005*%
%ADD274R,0.1215X0.0005*%
%ADD275R,0.1220X0.0005*%
%ADD276R,0.0292X0.0005*%
%ADD277R,0.1226X0.0005*%
%ADD278R,0.1231X0.0005*%
%ADD279R,0.1237X0.0005*%
%ADD280R,0.1242X0.0005*%
%ADD281R,0.1247X0.0005*%
%ADD282R,0.1253X0.0005*%
%ADD283R,0.0286X0.0005*%
%ADD284R,0.1258X0.0005*%
%ADD285R,0.0054X0.0005*%
%ADD286R,0.1264X0.0005*%
%ADD287R,0.1264X0.0005*%
%ADD288R,0.0443X0.0005*%
%ADD289R,0.0286X0.0005*%
%ADD290R,0.1274X0.0005*%
%ADD291R,0.1285X0.0005*%
%ADD292R,0.1296X0.0005*%
%ADD293R,0.0286X0.0005*%
%ADD294R,0.1307X0.0005*%
%ADD295R,0.1307X0.0005*%
%ADD296R,0.0394X0.0005*%
%ADD297R,0.0286X0.0005*%
%ADD298R,0.1318X0.0005*%
%ADD299R,0.1328X0.0005*%
%ADD300R,0.0281X0.0005*%
%ADD301R,0.1339X0.0005*%
%ADD302R,0.1350X0.0005*%
%ADD303R,0.0324X0.0005*%
%ADD304R,0.1350X0.0005*%
%ADD305R,0.0281X0.0005*%
%ADD306R,0.1361X0.0005*%
%ADD307R,0.1382X0.0005*%
%ADD308R,0.1393X0.0005*%
%ADD309R,0.1404X0.0005*%
%ADD310R,0.0275X0.0005*%
%ADD311R,0.1404X0.0005*%
%ADD312R,0.1415X0.0005*%
%ADD313R,0.0275X0.0005*%
%ADD314R,0.0275X0.0005*%
%ADD315R,0.0270X0.0005*%
%ADD316R,0.1426X0.0005*%
%ADD317R,0.1436X0.0005*%
%ADD318R,0.1447X0.0005*%
%ADD319R,0.1447X0.0005*%
%ADD320R,0.1458X0.0005*%
%ADD321R,0.1480X0.0005*%
%ADD322R,0.1490X0.0005*%
%ADD323R,0.1490X0.0005*%
%ADD324R,0.1501X0.0005*%
%ADD325R,0.0178X0.0005*%
%ADD326R,0.0173X0.0005*%
%ADD327R,0.1512X0.0005*%
%ADD328R,0.0167X0.0005*%
%ADD329R,0.0162X0.0005*%
%ADD330R,0.0157X0.0005*%
%ADD331R,0.0184X0.0005*%
%ADD332R,0.0146X0.0005*%
%ADD333R,0.0308X0.0005*%
%ADD334R,0.0756X0.0005*%
%ADD335R,0.0751X0.0005*%
%ADD336R,0.0184X0.0005*%
%ADD337R,0.0135X0.0005*%
%ADD338R,0.0270X0.0005*%
%ADD339R,0.0751X0.0005*%
%ADD340R,0.0135X0.0005*%
%ADD341R,0.0124X0.0005*%
%ADD342R,0.0119X0.0005*%
%ADD343R,0.0113X0.0005*%
%ADD344R,0.0108X0.0005*%
%ADD345R,0.0103X0.0005*%
%ADD346R,0.0097X0.0005*%
%ADD347R,0.0086X0.0005*%
%ADD348R,0.0189X0.0005*%
%ADD349R,0.0086X0.0005*%
%ADD350R,0.0189X0.0005*%
%ADD351R,0.0076X0.0005*%
%ADD352R,0.0070X0.0005*%
%ADD353R,0.0065X0.0005*%
%ADD354R,0.0059X0.0005*%
%ADD355R,0.0265X0.0005*%
%ADD356R,0.0049X0.0005*%
%ADD357R,0.0745X0.0005*%
%ADD358R,0.0189X0.0005*%
%ADD359R,0.0038X0.0005*%
%ADD360R,0.0265X0.0005*%
%ADD361R,0.0038X0.0005*%
%ADD362R,0.0745X0.0005*%
%ADD363R,0.0027X0.0005*%
%ADD364R,0.0194X0.0005*%
%ADD365R,0.0016X0.0005*%
%ADD366R,0.0011X0.0005*%
%ADD367R,0.0005X0.0005*%
%ADD368R,0.0751X0.0005*%
%ADD369R,0.0259X0.0005*%
%ADD370R,0.0194X0.0005*%
%ADD371R,0.0259X0.0005*%
%ADD372R,0.0200X0.0005*%
%ADD373R,0.0200X0.0005*%
%ADD374R,0.0151X0.0005*%
%ADD375R,0.0130X0.0005*%
%ADD376R,0.0097X0.0005*%
%ADD377R,0.0259X0.0005*%
%ADD378R,0.0032X0.0005*%
%ADD379R,0.0254X0.0005*%
%ADD380R,0.0259X0.0005*%
%ADD381R,0.0740X0.0005*%
%ADD382R,0.0254X0.0005*%
%ADD383R,0.0740X0.0005*%
%ADD384R,0.0248X0.0005*%
%ADD385R,0.0248X0.0005*%
%ADD386R,0.0162X0.0005*%
%ADD387R,0.0151X0.0005*%
%ADD388R,0.0248X0.0005*%
%ADD389R,0.0140X0.0005*%
%ADD390R,0.0103X0.0005*%
%ADD391R,0.0092X0.0005*%
%ADD392R,0.0081X0.0005*%
%ADD393R,0.0054X0.0005*%
%ADD394R,0.0043X0.0005*%
%ADD395R,0.0022X0.0005*%
%ADD396R,0.0308X0.0005*%
%ADD397R,0.0243X0.0005*%
%ADD398R,0.0373X0.0005*%
%ADD399R,0.0130X0.0005*%
%ADD400R,0.0394X0.0005*%
%ADD401R,0.0065X0.0005*%
%ADD402R,0.0394X0.0005*%
%ADD403R,0.0022X0.0005*%
%ADD404R,0.0238X0.0005*%
%ADD405R,0.0470X0.0005*%
%ADD406R,0.0470X0.0005*%
%ADD407R,0.0238X0.0005*%
%ADD408R,0.0491X0.0005*%
%ADD409R,0.0491X0.0005*%
%ADD410R,0.0513X0.0005*%
%ADD411R,0.0529X0.0005*%
%ADD412R,0.0535X0.0005*%
%ADD413R,0.0551X0.0005*%
%ADD414R,0.0556X0.0005*%
%ADD415R,0.0567X0.0005*%
%ADD416R,0.0578X0.0005*%
%ADD417R,0.0572X0.0005*%
%ADD418R,0.0583X0.0005*%
%ADD419R,0.0583X0.0005*%
%ADD420R,0.0594X0.0005*%
%ADD421R,0.0232X0.0005*%
%ADD422R,0.0594X0.0005*%
%ADD423R,0.0605X0.0005*%
%ADD424R,0.0232X0.0005*%
%ADD425R,0.0275X0.0005*%
%ADD426R,0.0616X0.0005*%
%ADD427R,0.0626X0.0005*%
%ADD428R,0.0626X0.0005*%
%ADD429R,0.0643X0.0005*%
%ADD430R,0.0648X0.0005*%
%ADD431R,0.0664X0.0005*%
%ADD432R,0.0664X0.0005*%
%ADD433R,0.0675X0.0005*%
%ADD434R,0.0686X0.0005*%
%ADD435R,0.0691X0.0005*%
%ADD436R,0.0697X0.0005*%
%ADD437R,0.0713X0.0005*%
%ADD438R,0.0707X0.0005*%
%ADD439R,0.0718X0.0005*%
%ADD440R,0.0724X0.0005*%
%ADD441R,0.0734X0.0005*%
%ADD442R,0.0729X0.0005*%
%ADD443R,0.0734X0.0005*%
%ADD444R,0.0140X0.0005*%
%ADD445R,0.0729X0.0005*%
%ADD446R,0.0124X0.0005*%
%ADD447R,0.0151X0.0005*%
%ADD448R,0.0761X0.0005*%
%ADD449R,0.4455X0.0005*%
%ADD450R,0.4466X0.0005*%
%ADD451R,0.4477X0.0005*%
%ADD452R,0.4477X0.0005*%
%ADD453R,0.4487X0.0005*%
%ADD454R,0.4498X0.0005*%
%ADD455R,0.4509X0.0005*%
%ADD456R,0.4520X0.0005*%
%ADD457R,0.4520X0.0005*%
%ADD458R,0.4531X0.0005*%
%ADD459R,0.4541X0.0005*%
%ADD460R,0.0410X0.0005*%
%ADD461R,0.0421X0.0005*%
%ADD462R,0.0383X0.0005*%
%ADD463R,0.0454X0.0005*%
%ADD464R,0.0475X0.0005*%
%ADD465R,0.0675X0.0005*%
%ADD466R,0.0772X0.0005*%
%ADD467R,0.0778X0.0005*%
%ADD468R,0.0810X0.0005*%
%ADD469R,0.0826X0.0005*%
%ADD470R,0.0853X0.0005*%
%ADD471R,0.0815X0.0005*%
%ADD472R,0.0918X0.0005*%
%ADD473R,0.0886X0.0005*%
%ADD474R,0.2398X0.0005*%
%ADD475R,0.2376X0.0005*%
%ADD476R,0.2138X0.0005*%
%ADD477R,0.2106X0.0005*%
%ADD478R,0.1874X0.0005*%
%ADD479R,0.1836X0.0005*%
%ADD480R,0.1728X0.0005*%
%ADD481R,0.1555X0.0005*%
%ADD482R,0.1512X0.0005*%
%ADD483R,0.1426X0.0005*%
%ADD484R,0.1026X0.0005*%
%ADD485R,0.0880X0.0005*%
%ADD486R,0.0480X0.0480*%
%ADD487C,0.0480*%
%ADD488OC8,0.0480*%
%ADD489C,0.0600*%
%ADD490C,0.0512*%
%ADD491C,0.0900*%
%ADD492R,0.0276X0.0354*%
%ADD493C,0.0100*%
D10*
X018447Y006271D03*
X021461Y008701D03*
X021471Y008744D03*
X021504Y008879D03*
X021423Y010456D03*
D11*
X019446Y009074D03*
X019446Y009068D03*
X017411Y009084D03*
X017411Y009090D03*
X016584Y007032D03*
X016590Y007027D03*
X016606Y007016D03*
X018447Y006276D03*
X020175Y006924D03*
X020192Y006935D03*
X020062Y012173D03*
X018447Y012740D03*
X016719Y012092D03*
X016714Y012087D03*
X016703Y012081D03*
D12*
X017127Y012319D03*
X019708Y012351D03*
X019514Y009349D03*
X019514Y009344D03*
X017343Y009360D03*
X017343Y009365D03*
X017019Y006762D03*
X017030Y006757D03*
X017041Y006752D03*
X018450Y006282D03*
X019795Y006714D03*
D13*
X018447Y006287D03*
X019571Y009570D03*
X019571Y009576D03*
X017286Y009587D03*
X017286Y009592D03*
X018447Y012729D03*
D14*
X018447Y012724D03*
X018447Y006293D03*
D15*
X018447Y006298D03*
D16*
X018447Y006303D03*
X019301Y006552D03*
X018431Y007524D03*
X018447Y012713D03*
D17*
X018431Y007605D03*
X018447Y006309D03*
D18*
X018447Y006314D03*
D19*
X018447Y006320D03*
X018447Y012697D03*
D20*
X018447Y012692D03*
X018431Y007788D03*
X018447Y006325D03*
D21*
X018450Y006330D03*
X018450Y012686D03*
D22*
X018447Y012681D03*
X018447Y006336D03*
D23*
X018447Y006341D03*
X018431Y007950D03*
X018431Y007956D03*
X018447Y012675D03*
D24*
X018450Y006347D03*
D25*
X018447Y006352D03*
X018431Y008048D03*
X018431Y008053D03*
X018447Y012665D03*
D26*
X018447Y006357D03*
D27*
X018447Y006363D03*
D28*
X018447Y006368D03*
X018447Y012648D03*
D29*
X018447Y012643D03*
X018447Y006374D03*
D30*
X018447Y006379D03*
X018447Y012638D03*
D31*
X018450Y006384D03*
D32*
X018447Y006390D03*
X018447Y012627D03*
D33*
X018447Y012621D03*
X018447Y006395D03*
D34*
X018447Y006401D03*
D35*
X018450Y006406D03*
D36*
X018447Y006411D03*
X018447Y012605D03*
D37*
X018447Y012600D03*
X018447Y006417D03*
D38*
X018447Y006422D03*
X018447Y012594D03*
D39*
X018447Y012589D03*
X018447Y006428D03*
D40*
X018447Y006433D03*
X018447Y012584D03*
D41*
X018447Y012578D03*
X018447Y006438D03*
D42*
X018447Y006444D03*
D43*
X018447Y006449D03*
D44*
X018447Y006455D03*
X018447Y012562D03*
D45*
X018447Y012557D03*
X018447Y006460D03*
D46*
X018447Y006465D03*
X018447Y012551D03*
D47*
X018447Y012546D03*
X018447Y006471D03*
D48*
X018447Y006476D03*
X018447Y012540D03*
D49*
X018450Y012535D03*
X018450Y006482D03*
D50*
X018447Y006487D03*
X018447Y012530D03*
D51*
X018447Y006492D03*
D52*
X018447Y006498D03*
D53*
X018447Y006503D03*
X018447Y012513D03*
D54*
X018447Y012508D03*
X018447Y006509D03*
D55*
X018450Y006514D03*
D56*
X018447Y006519D03*
D57*
X018447Y006525D03*
D58*
X018447Y006530D03*
D59*
X017724Y006536D03*
D60*
X018423Y006536D03*
X021469Y008728D03*
X021474Y008750D03*
X021479Y008771D03*
X021490Y008814D03*
X021490Y008820D03*
X021496Y008841D03*
X021496Y008847D03*
X021501Y008858D03*
X021501Y008863D03*
X021501Y008868D03*
X021501Y008874D03*
X021506Y008885D03*
X021506Y008890D03*
X021506Y008895D03*
X021506Y008901D03*
X021512Y008906D03*
X021512Y008912D03*
X021512Y008917D03*
X021512Y008922D03*
X021517Y008933D03*
X021517Y008939D03*
X021517Y008944D03*
X021517Y008949D03*
X021517Y008955D03*
X021517Y008960D03*
X021523Y008966D03*
X021523Y008976D03*
X021523Y008982D03*
X021523Y008987D03*
X021528Y008998D03*
X021528Y009003D03*
X021528Y009009D03*
X021528Y009020D03*
X021533Y009036D03*
X021533Y009041D03*
X021533Y009047D03*
X021533Y009052D03*
X021539Y009074D03*
X021539Y009079D03*
X021539Y009084D03*
X021539Y009090D03*
X021544Y009111D03*
X021544Y009117D03*
X021544Y009122D03*
X021544Y009128D03*
X021550Y009160D03*
X021550Y009165D03*
X021550Y009171D03*
X021555Y009214D03*
X021555Y009219D03*
X021528Y010019D03*
X021517Y010078D03*
X021517Y010083D03*
X021512Y010110D03*
X021506Y010132D03*
X021506Y010137D03*
X021501Y010159D03*
X021501Y010164D03*
X021496Y010191D03*
X021490Y010208D03*
X021490Y010213D03*
X021490Y010218D03*
X021485Y010235D03*
X021485Y010240D03*
X021479Y010251D03*
X021479Y010256D03*
X021479Y010262D03*
X021474Y010272D03*
X021474Y010283D03*
X021469Y010294D03*
X021469Y010299D03*
X021469Y010305D03*
X021463Y010316D03*
X021463Y010326D03*
X021458Y010332D03*
X021458Y010337D03*
X021458Y010343D03*
X021458Y010348D03*
X021452Y010353D03*
X021452Y010359D03*
X021447Y010375D03*
X021447Y010380D03*
X021447Y010386D03*
X021442Y010391D03*
X021442Y010397D03*
X021442Y010402D03*
X021436Y010418D03*
X021431Y010429D03*
X021431Y010434D03*
X021425Y010445D03*
X021425Y010451D03*
X021420Y010467D03*
X021415Y010483D03*
X021404Y010515D03*
X021398Y010532D03*
D61*
X018434Y007675D03*
X019190Y006536D03*
D62*
X017681Y006541D03*
D63*
X018426Y006541D03*
X018426Y006584D03*
X018426Y006633D03*
X018426Y006676D03*
X018426Y006719D03*
X018426Y006768D03*
X018426Y006811D03*
X018426Y006854D03*
X018426Y006903D03*
X018426Y006946D03*
X018426Y006989D03*
X018426Y007038D03*
X018426Y007081D03*
X018426Y007124D03*
X018426Y007173D03*
X018426Y007216D03*
X018426Y007259D03*
X018426Y007308D03*
X018426Y007351D03*
X018426Y007394D03*
X021536Y009063D03*
X021536Y009959D03*
X021531Y010008D03*
D64*
X019233Y006541D03*
D65*
X017645Y006546D03*
D66*
X018426Y006546D03*
X018426Y006552D03*
X018426Y006557D03*
X018426Y006563D03*
X018426Y006568D03*
X018426Y006573D03*
X018426Y006579D03*
X018426Y006590D03*
X018426Y006595D03*
X018426Y006600D03*
X018426Y006606D03*
X018426Y006611D03*
X018426Y006617D03*
X018426Y006622D03*
X018426Y006627D03*
X018426Y006638D03*
X018426Y006644D03*
X018426Y006649D03*
X018426Y006654D03*
X018426Y006660D03*
X018426Y006665D03*
X018426Y006671D03*
X018426Y006681D03*
X018426Y006687D03*
X018426Y006692D03*
X018426Y006698D03*
X018426Y006703D03*
X018426Y006708D03*
X018426Y006714D03*
X018426Y006725D03*
X018426Y006730D03*
X018426Y006735D03*
X018426Y006741D03*
X018426Y006746D03*
X018426Y006752D03*
X018426Y006757D03*
X018426Y006762D03*
X018426Y006773D03*
X018426Y006779D03*
X018426Y006784D03*
X018426Y006789D03*
X018426Y006795D03*
X018426Y006800D03*
X018426Y006806D03*
X018426Y006816D03*
X018426Y006822D03*
X018426Y006827D03*
X018426Y006833D03*
X018426Y006838D03*
X018426Y006843D03*
X018426Y006849D03*
X018426Y006860D03*
X018426Y006865D03*
X018426Y006870D03*
X018426Y006876D03*
X018426Y006881D03*
X018426Y006887D03*
X018426Y006892D03*
X018426Y006897D03*
X018426Y006908D03*
X018426Y006914D03*
X018426Y006919D03*
X018426Y006924D03*
X018426Y006930D03*
X018426Y006935D03*
X018426Y006941D03*
X018426Y006951D03*
X018426Y006957D03*
X018426Y006962D03*
X018426Y006968D03*
X018426Y006973D03*
X018426Y006978D03*
X018426Y006984D03*
X018426Y006995D03*
X018426Y007000D03*
X018426Y007005D03*
X018426Y007011D03*
X018426Y007016D03*
X018426Y007022D03*
X018426Y007027D03*
X018426Y007032D03*
X018426Y007043D03*
X018426Y007049D03*
X018426Y007054D03*
X018426Y007059D03*
X018426Y007065D03*
X018426Y007070D03*
X018426Y007076D03*
X018426Y007086D03*
X018426Y007092D03*
X018426Y007097D03*
X018426Y007103D03*
X018426Y007108D03*
X018426Y007113D03*
X018426Y007119D03*
X018426Y007130D03*
X018426Y007135D03*
X018426Y007140D03*
X018426Y007146D03*
X018426Y007151D03*
X018426Y007157D03*
X018426Y007162D03*
X018426Y007167D03*
X018426Y007178D03*
X018426Y007184D03*
X018426Y007189D03*
X018426Y007194D03*
X018426Y007200D03*
X018426Y007205D03*
X018426Y007211D03*
X018426Y007221D03*
X018426Y007227D03*
X018426Y007232D03*
X018426Y007238D03*
X018426Y007243D03*
X018426Y007248D03*
X018426Y007254D03*
X018426Y007265D03*
X018426Y007270D03*
X018426Y007275D03*
X018426Y007281D03*
X018426Y007286D03*
X018426Y007292D03*
X018426Y007297D03*
X018426Y007302D03*
X018426Y007313D03*
X018426Y007319D03*
X018426Y007324D03*
X018426Y007329D03*
X018426Y007335D03*
X018426Y007340D03*
X018426Y007346D03*
X018426Y007356D03*
X018426Y007362D03*
X018426Y007367D03*
X018426Y007373D03*
X018426Y007378D03*
X018426Y007383D03*
X018426Y007389D03*
X018426Y007400D03*
X018426Y007405D03*
X021531Y009025D03*
X021531Y009030D03*
X021536Y009057D03*
X021536Y009068D03*
X021536Y009948D03*
X021536Y009954D03*
X021536Y009965D03*
X021536Y009970D03*
X021536Y009975D03*
X021536Y009981D03*
X021531Y009986D03*
X021531Y009992D03*
X021531Y009997D03*
X021531Y010002D03*
X021531Y010013D03*
X021493Y010197D03*
X021493Y010202D03*
X021488Y010224D03*
X021482Y010245D03*
D67*
X018431Y007562D03*
X019268Y006546D03*
D68*
X018434Y007567D03*
X017613Y006552D03*
X017678Y012492D03*
D69*
X017589Y006557D03*
D70*
X019328Y006557D03*
X019268Y012486D03*
D71*
X018431Y007508D03*
X018431Y007502D03*
X017562Y006563D03*
D72*
X019352Y006563D03*
X017591Y012476D03*
D73*
X017540Y006568D03*
D74*
X017494Y006579D03*
X019373Y006568D03*
X017564Y012470D03*
D75*
X017519Y006573D03*
D76*
X019395Y006573D03*
D77*
X019419Y006579D03*
X019344Y012470D03*
D78*
X017475Y006584D03*
D79*
X019438Y006584D03*
D80*
X017456Y006590D03*
D81*
X017402Y006606D03*
X019460Y006590D03*
X019390Y012459D03*
X017483Y012449D03*
D82*
X017438Y006595D03*
D83*
X017386Y006611D03*
X019476Y006595D03*
D84*
X017419Y006600D03*
D85*
X019495Y006600D03*
D86*
X019511Y006606D03*
X017351Y006622D03*
X018053Y008096D03*
X018048Y008107D03*
X018037Y008129D03*
X018032Y008139D03*
X018026Y008150D03*
X018015Y008172D03*
X017232Y009749D03*
X017227Y009759D03*
X017222Y009770D03*
X017211Y009792D03*
X017087Y010046D03*
X017081Y010056D03*
X017076Y010067D03*
X017070Y010078D03*
X017065Y010089D03*
X017060Y010100D03*
X017054Y010110D03*
X017049Y010121D03*
X017043Y010132D03*
X017033Y010154D03*
X017027Y010164D03*
X017022Y010175D03*
X017011Y010197D03*
X017006Y010208D03*
X017000Y010218D03*
X016989Y010240D03*
X016984Y010251D03*
X016979Y010262D03*
X016973Y010272D03*
X016968Y010283D03*
X016962Y010294D03*
X016957Y010305D03*
X016952Y010316D03*
X016946Y010326D03*
X016941Y010337D03*
X016941Y010343D03*
X016935Y010348D03*
X016935Y010353D03*
X016925Y010375D03*
X016919Y010386D03*
X016914Y010397D03*
X016908Y010407D03*
X016903Y010418D03*
X016898Y010429D03*
X016892Y010440D03*
X016887Y010451D03*
X016881Y010461D03*
X016876Y010472D03*
X016871Y010483D03*
X016865Y010494D03*
X016860Y010505D03*
X016854Y010515D03*
X016849Y010526D03*
X016844Y010537D03*
X016833Y010559D03*
X016827Y010569D03*
X016822Y010580D03*
X016811Y010602D03*
X016806Y010613D03*
X016800Y010623D03*
X016795Y010640D03*
X016790Y010645D03*
X016790Y010650D03*
X016784Y010656D03*
X016784Y010661D03*
X016779Y010667D03*
X016779Y010672D03*
X016773Y010677D03*
X016768Y010688D03*
X016768Y010694D03*
X016763Y010699D03*
X016763Y010704D03*
X016757Y010710D03*
X016757Y010715D03*
X016752Y010721D03*
X016746Y010731D03*
X016746Y010737D03*
X016741Y010742D03*
X016741Y010748D03*
X016736Y010753D03*
X016736Y010758D03*
X016730Y010764D03*
X016725Y010775D03*
X016725Y010780D03*
X016719Y010785D03*
X016719Y010791D03*
X016714Y010796D03*
X016714Y010802D03*
X016709Y010807D03*
X016709Y010812D03*
X016703Y010823D03*
X016698Y010829D03*
X016698Y010834D03*
X016692Y010839D03*
X016692Y010845D03*
X016687Y010850D03*
X016687Y010856D03*
X016682Y010866D03*
X016676Y010872D03*
X016676Y010877D03*
X016671Y010883D03*
X016671Y010888D03*
X016665Y010893D03*
X016665Y010899D03*
X016660Y010910D03*
X016655Y010915D03*
X016655Y010920D03*
X016649Y010931D03*
X016649Y010937D03*
X016644Y010942D03*
X016644Y010947D03*
X016638Y010958D03*
X016633Y010964D03*
X016633Y010969D03*
X016628Y010974D03*
X016628Y010980D03*
X016622Y010985D03*
X016622Y010991D03*
X016617Y011001D03*
X016611Y011007D03*
X016611Y011012D03*
X016606Y011018D03*
X016606Y011023D03*
X016601Y011028D03*
X016601Y011034D03*
X016595Y011045D03*
X016590Y011050D03*
X016590Y011055D03*
X017427Y012432D03*
X019430Y012449D03*
D87*
X019449Y012443D03*
X017408Y012427D03*
X019989Y010451D03*
X019984Y010445D03*
X019984Y010440D03*
X019978Y010434D03*
X019978Y010429D03*
X019973Y010424D03*
X019973Y010418D03*
X019940Y010359D03*
X019940Y010353D03*
X019935Y010348D03*
X019935Y010343D03*
X019930Y010337D03*
X019930Y010332D03*
X019897Y010272D03*
X019897Y010267D03*
X019892Y010262D03*
X019892Y010256D03*
X019886Y010251D03*
X019886Y010245D03*
X019881Y010240D03*
X019881Y010235D03*
X019849Y010175D03*
X019843Y010164D03*
X019838Y010154D03*
X019805Y010089D03*
X019800Y010078D03*
X019795Y010067D03*
X019762Y010002D03*
X019757Y009992D03*
X019751Y009981D03*
X019130Y008728D03*
X019130Y008723D03*
X019125Y008717D03*
X019125Y008712D03*
X019120Y008706D03*
X019087Y008642D03*
X019087Y008636D03*
X019082Y008631D03*
X019082Y008625D03*
X019076Y008620D03*
X019076Y008615D03*
X019071Y008604D03*
X019044Y008555D03*
X019039Y008544D03*
X019033Y008534D03*
X017737Y008717D03*
X017737Y008723D03*
X017732Y008728D03*
X017732Y008733D03*
X019530Y006611D03*
D88*
X017370Y006617D03*
X019411Y012454D03*
D89*
X020286Y011045D03*
X020281Y011034D03*
X020281Y011028D03*
X020275Y011023D03*
X020275Y011018D03*
X020270Y011012D03*
X020270Y011007D03*
X020264Y011001D03*
X020259Y010991D03*
X020243Y010958D03*
X020237Y010947D03*
X020232Y010937D03*
X020227Y010926D03*
X020221Y010915D03*
X020210Y010893D03*
X020200Y010872D03*
X020189Y010850D03*
X020183Y010839D03*
X020178Y010829D03*
X020167Y010807D03*
X020151Y010775D03*
X020146Y010764D03*
X020140Y010753D03*
X020135Y010742D03*
X019584Y009630D03*
X019584Y009624D03*
X017273Y009641D03*
X017392Y012422D03*
X017305Y006638D03*
X019546Y006617D03*
D90*
X019562Y006622D03*
X017294Y006644D03*
X017278Y009619D03*
X017278Y009624D03*
X019579Y009608D03*
X019487Y012432D03*
X017375Y012416D03*
D91*
X016652Y010926D03*
X016798Y010629D03*
X016819Y010586D03*
X016825Y010575D03*
X016830Y010564D03*
X016835Y010553D03*
X016841Y010542D03*
X016868Y010488D03*
X016873Y010478D03*
X016879Y010467D03*
X016889Y010445D03*
X016911Y010402D03*
X016916Y010391D03*
X016922Y010380D03*
X016927Y010370D03*
X016933Y010359D03*
X016954Y010310D03*
X016960Y010299D03*
X016965Y010289D03*
X016976Y010267D03*
X016997Y010224D03*
X017003Y010213D03*
X017008Y010202D03*
X017014Y010191D03*
X017019Y010181D03*
X017024Y010170D03*
X017041Y010137D03*
X017046Y010127D03*
X017051Y010116D03*
X017057Y010105D03*
X017068Y010083D03*
X017089Y010040D03*
X017089Y010035D03*
X017095Y010029D03*
X017095Y010024D03*
X017100Y010019D03*
X017100Y010013D03*
X017105Y010002D03*
X017111Y009997D03*
X017111Y009992D03*
X017132Y009954D03*
X017132Y009948D03*
X017138Y009943D03*
X017138Y009938D03*
X017143Y009932D03*
X017143Y009927D03*
X017149Y009921D03*
X017154Y009911D03*
X017154Y009905D03*
X017159Y009900D03*
X017159Y009894D03*
X017176Y009867D03*
X017176Y009862D03*
X017181Y009857D03*
X017181Y009851D03*
X017186Y009846D03*
X017186Y009840D03*
X017192Y009835D03*
X017192Y009830D03*
X017197Y009819D03*
X017203Y009813D03*
X017203Y009808D03*
X017224Y009765D03*
X017230Y009754D03*
X017235Y009743D03*
X017240Y009732D03*
X017240Y009727D03*
X017246Y009722D03*
X017246Y009716D03*
X017851Y008496D03*
X017856Y008485D03*
X017867Y008463D03*
X017872Y008453D03*
X017878Y008442D03*
X017899Y008399D03*
X017910Y008377D03*
X017915Y008366D03*
X017921Y008355D03*
X017942Y008318D03*
X017942Y008312D03*
X017948Y008307D03*
X017948Y008301D03*
X017953Y008291D03*
X017959Y008285D03*
X017959Y008280D03*
X017964Y008274D03*
X017964Y008269D03*
X017969Y008264D03*
X017969Y008258D03*
X017986Y008231D03*
X017986Y008226D03*
X017991Y008220D03*
X017991Y008215D03*
X017996Y008210D03*
X018002Y008199D03*
X018002Y008193D03*
X018007Y008188D03*
X018007Y008183D03*
X018013Y008177D03*
X018034Y008134D03*
X018040Y008123D03*
X018045Y008112D03*
X018050Y008102D03*
X018812Y008096D03*
X018817Y008102D03*
X018817Y008107D03*
X018823Y008112D03*
X018844Y008156D03*
X018850Y008166D03*
X018850Y008172D03*
X018855Y008177D03*
X018855Y008183D03*
X018860Y008188D03*
X018860Y008193D03*
X018866Y008199D03*
X018887Y008242D03*
X018898Y008264D03*
X018904Y008274D03*
X018909Y008285D03*
X018931Y008328D03*
X018941Y008350D03*
X018947Y008361D03*
X018952Y008372D03*
X018958Y008382D03*
X019606Y009695D03*
X019611Y009700D03*
X019611Y009705D03*
X019616Y009711D03*
X019616Y009716D03*
X019622Y009722D03*
X019627Y009732D03*
X019633Y009743D03*
X019654Y009786D03*
X019660Y009797D03*
X019665Y009808D03*
X019670Y009819D03*
X019676Y009830D03*
X017338Y006627D03*
D92*
X017278Y006649D03*
X019579Y006627D03*
X019573Y009581D03*
X019573Y009587D03*
X017284Y009597D03*
X017359Y012411D03*
X019503Y012427D03*
D93*
X019989Y010456D03*
X019854Y010186D03*
X019120Y008701D03*
X019071Y008609D03*
X019028Y008523D03*
X017321Y006633D03*
D94*
X019592Y006633D03*
D95*
X019608Y006638D03*
X017249Y006660D03*
X017292Y009565D03*
X017292Y009570D03*
X019565Y009549D03*
X017330Y012400D03*
D96*
X017313Y012395D03*
X017297Y009549D03*
X017297Y009543D03*
X019560Y009533D03*
X019560Y009527D03*
X019625Y006644D03*
X017222Y006671D03*
D97*
X019635Y006649D03*
X019554Y009506D03*
X017303Y009522D03*
X017303Y009527D03*
D98*
X017265Y006654D03*
X017346Y012405D03*
D99*
X017270Y012378D03*
X017308Y009506D03*
X017308Y009500D03*
X019549Y009489D03*
X019549Y009484D03*
X017184Y006687D03*
X019652Y006654D03*
D100*
X019665Y006660D03*
X019584Y012400D03*
D101*
X019535Y012416D03*
X019562Y009543D03*
X019562Y009538D03*
X017294Y009560D03*
X017235Y006665D03*
D102*
X017157Y006698D03*
X019679Y006665D03*
X019544Y009462D03*
X017313Y009479D03*
X017313Y009484D03*
X017259Y012373D03*
X019598Y012395D03*
D103*
X017246Y012368D03*
X017316Y009473D03*
X019541Y009457D03*
X019541Y009452D03*
X019692Y006671D03*
D104*
X017211Y006676D03*
X019554Y009511D03*
D105*
X019706Y006676D03*
X019614Y012389D03*
D106*
X019568Y012405D03*
X017284Y012384D03*
X017197Y006681D03*
D107*
X019716Y006681D03*
X019533Y009425D03*
X017216Y012357D03*
D108*
X017203Y012351D03*
X019643Y012378D03*
X019530Y009414D03*
X019530Y009408D03*
X017327Y009425D03*
X017327Y009430D03*
X019730Y006687D03*
D109*
X017170Y006692D03*
X017311Y009489D03*
X017311Y009495D03*
X019546Y009479D03*
X019546Y009473D03*
D110*
X019743Y006692D03*
X017178Y012341D03*
D111*
X019654Y012373D03*
X019525Y009392D03*
X019525Y009387D03*
X017332Y009403D03*
X017332Y009408D03*
X017084Y006730D03*
X019757Y006698D03*
D112*
X017146Y006703D03*
X017319Y009457D03*
X017319Y009462D03*
X019538Y009446D03*
X019538Y009441D03*
X017232Y012362D03*
D113*
X017154Y012330D03*
X019681Y012362D03*
X019519Y009371D03*
X019519Y009365D03*
X017338Y009381D03*
X017338Y009387D03*
X017051Y006746D03*
X019768Y006703D03*
D114*
X017132Y006708D03*
X017122Y006714D03*
X019535Y009430D03*
X019535Y009435D03*
X017321Y009446D03*
X017321Y009452D03*
X019627Y012384D03*
D115*
X019781Y006708D03*
D116*
X017111Y006719D03*
X017192Y012346D03*
D117*
X019805Y006719D03*
D118*
X017097Y006725D03*
X017330Y009414D03*
X019527Y009403D03*
X019527Y009398D03*
D119*
X019816Y006725D03*
X016997Y006773D03*
X017105Y012308D03*
D120*
X017351Y009327D03*
X019506Y009317D03*
X019506Y009311D03*
X019830Y006730D03*
X016989Y006779D03*
D121*
X017076Y006735D03*
X017168Y012335D03*
D122*
X019746Y012335D03*
X019838Y006735D03*
X016976Y006784D03*
D123*
X017065Y006741D03*
X017335Y009392D03*
X017335Y009398D03*
X019522Y009381D03*
X019668Y012368D03*
D124*
X019760Y012330D03*
X017060Y012287D03*
X017049Y012281D03*
X017357Y009311D03*
X017357Y009306D03*
X019500Y009295D03*
X019500Y009290D03*
X019862Y006746D03*
X019851Y006741D03*
X016968Y006789D03*
X016957Y006795D03*
D125*
X019873Y006752D03*
X019884Y006757D03*
X019895Y006762D03*
X019495Y009268D03*
X019495Y009273D03*
X017362Y009290D03*
X017027Y012270D03*
X017038Y012276D03*
D126*
X017008Y006768D03*
D127*
X019905Y006768D03*
X019819Y012303D03*
X016995Y012254D03*
D128*
X017006Y012260D03*
X019808Y012308D03*
X019490Y009252D03*
X019490Y009246D03*
X017367Y009263D03*
X017367Y009268D03*
X016898Y006827D03*
X016908Y006822D03*
X019916Y006773D03*
D129*
X019924Y006779D03*
X016889Y006833D03*
X016879Y006838D03*
X017370Y009252D03*
X017370Y009257D03*
X019487Y009236D03*
X019832Y012297D03*
X016987Y012249D03*
X016976Y012243D03*
D130*
X019841Y012292D03*
X019484Y009230D03*
X019484Y009225D03*
X017373Y009246D03*
X016871Y006843D03*
X019938Y006784D03*
D131*
X019946Y006789D03*
X019957Y006795D03*
X016841Y006860D03*
X017375Y009225D03*
X017375Y009230D03*
X017375Y009236D03*
X019481Y009219D03*
X019481Y009214D03*
X019865Y012281D03*
X019854Y012287D03*
X016965Y012238D03*
X016954Y012233D03*
D132*
X019773Y012324D03*
X019784Y012319D03*
X017359Y009300D03*
X017359Y009295D03*
X019498Y009279D03*
X016949Y006800D03*
X016938Y006806D03*
D133*
X019965Y006800D03*
X016946Y012227D03*
X016935Y012222D03*
D134*
X017378Y009219D03*
X017378Y009214D03*
X019479Y009209D03*
X019479Y009203D03*
X016833Y006865D03*
X019976Y006806D03*
D135*
X016927Y006811D03*
D136*
X019986Y006811D03*
X017384Y009198D03*
D137*
X017365Y009273D03*
X017365Y009279D03*
X019492Y009263D03*
X019492Y009257D03*
X016916Y006816D03*
X017019Y012265D03*
X019795Y012314D03*
D138*
X016898Y012200D03*
X016806Y006881D03*
X019997Y006816D03*
D139*
X020005Y006822D03*
X020016Y006827D03*
X016781Y006897D03*
X017386Y009182D03*
X017386Y009187D03*
X019471Y009176D03*
X019471Y009171D03*
X019471Y009165D03*
X019908Y012260D03*
X016884Y012195D03*
D140*
X016876Y012189D03*
X016860Y012179D03*
X019927Y012249D03*
X019938Y012243D03*
X019468Y009160D03*
X019468Y009155D03*
X017389Y009171D03*
X017389Y009176D03*
X016746Y006919D03*
X020024Y006833D03*
X020035Y006838D03*
D141*
X020043Y006843D03*
X020054Y006849D03*
X016754Y006914D03*
X016738Y006924D03*
X016722Y006935D03*
X019465Y009144D03*
X016868Y012184D03*
X019946Y012238D03*
D142*
X016860Y006849D03*
D143*
X016852Y006854D03*
D144*
X020062Y006854D03*
X017394Y009149D03*
D145*
X017394Y009155D03*
X019463Y009138D03*
X019463Y009133D03*
X020073Y006860D03*
X016730Y006930D03*
X016714Y006941D03*
X016822Y012157D03*
X016833Y012162D03*
X019959Y012233D03*
D146*
X019967Y012227D03*
X019978Y012222D03*
X020081Y006865D03*
X016695Y006951D03*
X016690Y006957D03*
D147*
X016798Y006887D03*
X016814Y006876D03*
X016825Y006870D03*
X017381Y009203D03*
X017381Y009209D03*
X019476Y009192D03*
X019886Y012270D03*
X019876Y012276D03*
X016927Y012216D03*
D148*
X016814Y012152D03*
X017397Y009144D03*
X017397Y009138D03*
X019460Y009128D03*
X019460Y009122D03*
X020092Y006870D03*
D149*
X020100Y006876D03*
X020116Y006887D03*
X019457Y009111D03*
X019457Y009117D03*
X017400Y009128D03*
X017400Y009133D03*
X016665Y006973D03*
X016676Y006968D03*
X016682Y006962D03*
X016779Y012130D03*
X016790Y012135D03*
X016795Y012141D03*
X016806Y012146D03*
X019986Y012216D03*
X020008Y012206D03*
D150*
X020016Y012200D03*
X020027Y012195D03*
X016652Y006984D03*
X016657Y006978D03*
X020108Y006881D03*
X020124Y006892D03*
D151*
X016790Y006892D03*
X017384Y009192D03*
X019473Y009187D03*
X019473Y009182D03*
X019895Y012265D03*
X016908Y012206D03*
D152*
X016752Y012114D03*
X016746Y012108D03*
X020035Y012189D03*
X019452Y009095D03*
X019452Y009090D03*
X017405Y009111D03*
X016628Y007000D03*
X016638Y006995D03*
X020132Y006897D03*
D153*
X016771Y006903D03*
X019919Y012254D03*
D154*
X016763Y012119D03*
X017405Y009106D03*
X016644Y006989D03*
X020143Y006903D03*
D155*
X016763Y006908D03*
D156*
X016619Y007005D03*
X016614Y007011D03*
X016598Y007022D03*
X017408Y009095D03*
X017408Y009101D03*
X019449Y009084D03*
X019449Y009079D03*
X020167Y006919D03*
X020151Y006908D03*
X020054Y012179D03*
X020043Y012184D03*
X016727Y012098D03*
D157*
X016738Y012103D03*
X020156Y006914D03*
D158*
X020183Y006930D03*
X020200Y006941D03*
X019444Y009057D03*
X017413Y009074D03*
X017413Y009079D03*
X016555Y007054D03*
X016571Y007043D03*
X016673Y012060D03*
X016679Y012065D03*
X016690Y012071D03*
X020081Y012162D03*
X020092Y012157D03*
D159*
X016706Y006946D03*
D160*
X017416Y009063D03*
X020208Y006946D03*
D161*
X020213Y006951D03*
X020224Y006957D03*
X016547Y007059D03*
X016541Y007065D03*
X016536Y007070D03*
X016665Y012054D03*
X020100Y012152D03*
X020111Y012146D03*
D162*
X020124Y012135D03*
X020135Y012130D03*
X016657Y012049D03*
X016641Y012038D03*
X016619Y012022D03*
X017419Y009057D03*
X017419Y009052D03*
X019438Y009041D03*
X019438Y009036D03*
X020686Y008404D03*
X020389Y007853D03*
X020248Y006973D03*
X020237Y006968D03*
X020232Y006962D03*
X016528Y007076D03*
X016506Y007092D03*
X016501Y007097D03*
D163*
X016514Y007086D03*
X017421Y009041D03*
X017421Y009047D03*
X019436Y009030D03*
X019436Y009025D03*
X020391Y007859D03*
X020256Y006978D03*
X016606Y012011D03*
X016611Y012017D03*
X020159Y012114D03*
D164*
X020143Y012125D03*
X016628Y012027D03*
X020683Y008409D03*
X020678Y008399D03*
X020278Y006995D03*
X020262Y006984D03*
X016493Y007103D03*
X016487Y007108D03*
D165*
X016468Y007124D03*
X019433Y009014D03*
X020270Y006989D03*
X020151Y012119D03*
D166*
X020167Y012108D03*
X016598Y012006D03*
X016592Y012000D03*
X016582Y011995D03*
X016576Y011990D03*
X017424Y009036D03*
X017424Y009030D03*
X019433Y009020D03*
X020686Y008415D03*
X020286Y007000D03*
X016479Y007113D03*
X016474Y007119D03*
D167*
X016460Y007130D03*
X016439Y007146D03*
X016433Y007151D03*
X016428Y007157D03*
X016422Y007162D03*
X017427Y009020D03*
X017427Y009025D03*
X019430Y009009D03*
X019430Y009003D03*
X020391Y007864D03*
X020300Y007011D03*
X020294Y007005D03*
X016563Y011979D03*
X016547Y011968D03*
X020192Y012092D03*
D168*
X020200Y012087D03*
X020210Y012081D03*
X016555Y011973D03*
X016533Y011957D03*
X016528Y011952D03*
X017429Y009009D03*
X019427Y008998D03*
X019427Y008993D03*
X020686Y008426D03*
X020389Y007869D03*
X020329Y007032D03*
X020324Y007027D03*
X020308Y007016D03*
X016414Y007167D03*
X016403Y007178D03*
X016398Y007184D03*
D169*
X016449Y007140D03*
X016455Y007135D03*
X020316Y007022D03*
X020683Y008420D03*
X016541Y011963D03*
X020175Y012103D03*
X020186Y012098D03*
D170*
X019444Y009063D03*
X016576Y007038D03*
D171*
X020337Y007038D03*
X020683Y008431D03*
X016514Y011941D03*
D172*
X016509Y011936D03*
X016498Y011930D03*
X016520Y011946D03*
X020224Y012071D03*
X020235Y012065D03*
X020240Y012060D03*
X017432Y009003D03*
X017432Y008998D03*
X019425Y008987D03*
X019425Y008982D03*
X020391Y007875D03*
X020359Y007054D03*
X020354Y007049D03*
X020343Y007043D03*
X016390Y007189D03*
X016385Y007194D03*
X016379Y007200D03*
X016374Y007205D03*
D173*
X016563Y007049D03*
X017416Y009068D03*
X019441Y009052D03*
X019441Y009047D03*
X016649Y012044D03*
X020116Y012141D03*
D174*
X020248Y012054D03*
X020254Y012049D03*
X020264Y012044D03*
X016484Y011919D03*
X016479Y011914D03*
X016474Y011909D03*
X017435Y008993D03*
X017435Y008987D03*
X019422Y008976D03*
X020389Y007880D03*
X020378Y007070D03*
X020372Y007065D03*
X020367Y007059D03*
X016366Y007211D03*
X016355Y007221D03*
X016349Y007227D03*
X016344Y007232D03*
D175*
X016336Y007238D03*
X016331Y007243D03*
X016325Y007248D03*
X016320Y007254D03*
X016309Y007265D03*
X017438Y008976D03*
X017438Y008982D03*
X019419Y008966D03*
X019419Y008960D03*
X020683Y008436D03*
X020391Y007886D03*
X020413Y007097D03*
X020408Y007092D03*
X020402Y007086D03*
X020386Y007076D03*
X016455Y011892D03*
X016466Y011903D03*
X016428Y011871D03*
X020273Y012038D03*
X020294Y012022D03*
D176*
X016636Y012033D03*
X016522Y007081D03*
D177*
X016314Y007259D03*
X020391Y007081D03*
X016460Y011898D03*
X020278Y012033D03*
D178*
X020286Y012027D03*
X020302Y012017D03*
X020308Y012011D03*
X016441Y011882D03*
X016436Y011876D03*
X016420Y011865D03*
X016414Y011860D03*
X016409Y011855D03*
X020686Y008442D03*
X020432Y007113D03*
X020426Y007108D03*
X020421Y007103D03*
X016301Y007270D03*
X016295Y007275D03*
X016290Y007281D03*
X016285Y007286D03*
X016279Y007292D03*
D179*
X016277Y007297D03*
X016271Y007302D03*
X017443Y008955D03*
X017443Y008960D03*
X019414Y008944D03*
X019414Y008939D03*
X020683Y008447D03*
X020472Y007146D03*
X020451Y007130D03*
X020440Y007119D03*
X016379Y011828D03*
X016385Y011833D03*
X016390Y011838D03*
X016395Y011844D03*
X020316Y012006D03*
X020321Y012000D03*
X020332Y011995D03*
X020337Y011990D03*
D180*
X016266Y007308D03*
X020445Y007124D03*
D181*
X020459Y007135D03*
X020491Y007162D03*
X020686Y008453D03*
X019411Y008933D03*
X018958Y008933D03*
X018958Y008939D03*
X018958Y008944D03*
X018958Y008949D03*
X018958Y008955D03*
X018958Y008960D03*
X018958Y008966D03*
X018958Y008976D03*
X018958Y008982D03*
X018958Y008987D03*
X018958Y008993D03*
X018958Y008998D03*
X018958Y009003D03*
X018958Y009009D03*
X018958Y009020D03*
X018958Y009025D03*
X018958Y009030D03*
X018958Y009036D03*
X018958Y009041D03*
X018958Y009047D03*
X018958Y009052D03*
X018958Y009057D03*
X018958Y009068D03*
X018958Y009074D03*
X018958Y009079D03*
X018958Y009084D03*
X018958Y009090D03*
X018958Y009095D03*
X018958Y009101D03*
X018958Y009111D03*
X018958Y009117D03*
X018958Y009122D03*
X018958Y009128D03*
X018958Y009133D03*
X018958Y009138D03*
X018958Y009144D03*
X018958Y009155D03*
X018958Y009160D03*
X018958Y009165D03*
X018958Y009171D03*
X018958Y009176D03*
X018958Y009182D03*
X018958Y009187D03*
X018958Y009192D03*
X018958Y009203D03*
X018958Y009209D03*
X018958Y009214D03*
X018958Y009219D03*
X018958Y009225D03*
X018958Y009230D03*
X018958Y009236D03*
X018958Y009246D03*
X018958Y009252D03*
X018958Y009257D03*
X018958Y009263D03*
X018958Y009268D03*
X018958Y009273D03*
X018958Y009279D03*
X018958Y009290D03*
X018958Y009295D03*
X018958Y009300D03*
X018958Y009306D03*
X018958Y009311D03*
X018958Y009317D03*
X018958Y009322D03*
X018958Y009327D03*
X018958Y009338D03*
X018958Y009344D03*
X018958Y009349D03*
X018958Y009354D03*
X018958Y009360D03*
X018958Y009365D03*
X018958Y009371D03*
X018958Y009381D03*
X018958Y009387D03*
X018958Y009392D03*
X018958Y009398D03*
X018958Y009403D03*
X018958Y009408D03*
X018958Y009414D03*
X018958Y009425D03*
X018958Y009430D03*
X018958Y009435D03*
X018958Y009441D03*
X018958Y009446D03*
X018958Y009452D03*
X018958Y009457D03*
X018958Y009462D03*
X018958Y009473D03*
X018958Y009479D03*
X018958Y009484D03*
X018958Y009489D03*
X018958Y009495D03*
X018958Y009500D03*
X018958Y009506D03*
X018958Y009516D03*
X018958Y009522D03*
X018958Y009527D03*
X018958Y009533D03*
X018958Y009538D03*
X018958Y009543D03*
X018958Y009549D03*
X018958Y009560D03*
X018958Y009565D03*
X018958Y009570D03*
X018958Y009576D03*
X018958Y009581D03*
X018958Y009587D03*
X018958Y009592D03*
X018958Y009597D03*
X018958Y009608D03*
X018958Y009614D03*
X018958Y009619D03*
X018958Y009624D03*
X018958Y009932D03*
X018958Y009938D03*
X018958Y009943D03*
X018958Y009948D03*
X018958Y009954D03*
X018958Y009965D03*
X018958Y009970D03*
X018958Y009975D03*
X018958Y009981D03*
X018958Y009986D03*
X018958Y009992D03*
X018958Y009997D03*
X018958Y010002D03*
X018958Y010013D03*
X018958Y010019D03*
X018958Y010024D03*
X018958Y010029D03*
X018958Y010035D03*
X018958Y010040D03*
X018958Y010046D03*
X018958Y010056D03*
X018958Y010062D03*
X018958Y010067D03*
X018958Y010073D03*
X018958Y010078D03*
X018958Y010083D03*
X018958Y010089D03*
X018958Y010100D03*
X018958Y010105D03*
X018958Y010110D03*
X018958Y010116D03*
X018958Y010121D03*
X018958Y010127D03*
X018958Y010132D03*
X018958Y010137D03*
X018958Y010148D03*
X018958Y010154D03*
X018958Y010159D03*
X018958Y010164D03*
X018958Y010170D03*
X018958Y010175D03*
X018958Y010181D03*
X018958Y010191D03*
X018958Y010197D03*
X018958Y010202D03*
X018958Y010208D03*
X018958Y010213D03*
X018958Y010218D03*
X018958Y010224D03*
X018958Y010235D03*
X018958Y010240D03*
X018958Y010245D03*
X018958Y010251D03*
X018958Y010256D03*
X018958Y010262D03*
X018958Y010267D03*
X018958Y010272D03*
X018958Y010283D03*
X018958Y010289D03*
X018958Y010294D03*
X018958Y010299D03*
X018958Y010305D03*
X018958Y010310D03*
X018958Y010316D03*
X018958Y010326D03*
X018958Y010332D03*
X018958Y010337D03*
X018958Y010343D03*
X018958Y010348D03*
X018958Y010353D03*
X018958Y010359D03*
X018958Y010370D03*
X018958Y010375D03*
X018958Y010380D03*
X018958Y010386D03*
X018958Y010391D03*
X018958Y010397D03*
X018958Y010402D03*
X018958Y010407D03*
X018958Y010418D03*
X018958Y010424D03*
X018958Y010429D03*
X018958Y010434D03*
X018958Y010440D03*
X018958Y010445D03*
X018958Y010451D03*
X018958Y010461D03*
X018958Y010467D03*
X018958Y010472D03*
X018958Y010478D03*
X018958Y010483D03*
X018958Y010488D03*
X018958Y010494D03*
X018958Y010505D03*
X018958Y010510D03*
X018958Y010515D03*
X018958Y010521D03*
X018958Y010526D03*
X018958Y010532D03*
X018958Y010537D03*
X018958Y010542D03*
X018958Y010553D03*
X018958Y010559D03*
X018958Y010564D03*
X018958Y010569D03*
X018958Y010575D03*
X018958Y010580D03*
X018958Y010586D03*
X018958Y010596D03*
X018958Y010602D03*
X018958Y010607D03*
X018958Y010613D03*
X018958Y010618D03*
X018958Y010623D03*
X018958Y010629D03*
X018958Y010640D03*
X018958Y010645D03*
X018958Y010650D03*
X018958Y010656D03*
X018958Y010661D03*
X018958Y010667D03*
X018958Y010672D03*
X018958Y010677D03*
X018958Y010688D03*
X018958Y010694D03*
X018958Y010699D03*
X018958Y010704D03*
X018958Y010710D03*
X018958Y010715D03*
X018958Y010721D03*
X018958Y010731D03*
X018958Y010737D03*
X018958Y010742D03*
X018958Y010748D03*
X018958Y010753D03*
X018958Y010758D03*
X018958Y010764D03*
X018958Y010775D03*
X018958Y010780D03*
X018958Y010785D03*
X018958Y010791D03*
X018958Y010796D03*
X018958Y010802D03*
X018958Y010807D03*
X018958Y010812D03*
X018958Y010823D03*
X018958Y010829D03*
X018958Y010834D03*
X018958Y010839D03*
X018958Y010845D03*
X018958Y010850D03*
X018958Y010856D03*
X020367Y011968D03*
X020372Y011963D03*
X016366Y011817D03*
X016360Y011811D03*
X016349Y011801D03*
X017446Y008949D03*
X017446Y008944D03*
X018958Y008922D03*
X018958Y008917D03*
X018958Y008912D03*
X018958Y008906D03*
X018958Y008901D03*
X018958Y008895D03*
X018958Y008890D03*
X018958Y008885D03*
X018958Y008874D03*
X018958Y008868D03*
X018958Y008863D03*
X018958Y008858D03*
X018958Y008852D03*
X018958Y008847D03*
X018958Y008841D03*
X018958Y008831D03*
X018958Y008825D03*
X018958Y008820D03*
X018958Y008814D03*
X018958Y008809D03*
X018958Y008804D03*
X016258Y007313D03*
X016231Y007340D03*
X016225Y007346D03*
X016214Y007356D03*
D182*
X016236Y007335D03*
X016241Y007329D03*
X016247Y007324D03*
X016252Y007319D03*
X020389Y007896D03*
X020389Y007902D03*
X020486Y007157D03*
X020480Y007151D03*
X020464Y007140D03*
X016371Y011822D03*
X020351Y011979D03*
D183*
X020359Y011973D03*
X020381Y011957D03*
X020386Y011952D03*
X017891Y010856D03*
X017891Y010850D03*
X017891Y010845D03*
X017891Y010839D03*
X017891Y010834D03*
X017891Y010829D03*
X017891Y010823D03*
X017891Y010812D03*
X017891Y010807D03*
X017891Y010802D03*
X017891Y010796D03*
X017891Y010791D03*
X017891Y010785D03*
X017891Y010780D03*
X017891Y010775D03*
X017891Y010764D03*
X017891Y010758D03*
X017891Y010753D03*
X017891Y010748D03*
X017891Y010742D03*
X017891Y010737D03*
X017891Y010731D03*
X017891Y010721D03*
X017891Y010715D03*
X017891Y010710D03*
X017891Y010704D03*
X017891Y010699D03*
X017891Y010694D03*
X017891Y010688D03*
X017891Y010677D03*
X017891Y010672D03*
X017891Y010667D03*
X017891Y010661D03*
X017891Y010656D03*
X017891Y010650D03*
X017891Y010645D03*
X017891Y010640D03*
X017891Y010629D03*
X017891Y010623D03*
X017891Y010618D03*
X017891Y010613D03*
X017891Y010607D03*
X017891Y010602D03*
X017891Y010596D03*
X017891Y010586D03*
X017891Y010580D03*
X017891Y010575D03*
X017891Y010569D03*
X017891Y010564D03*
X017891Y010559D03*
X017891Y010553D03*
X017891Y010542D03*
X017891Y010537D03*
X017891Y010532D03*
X017891Y010526D03*
X017891Y010521D03*
X017891Y010515D03*
X017891Y010510D03*
X017891Y010505D03*
X017891Y010494D03*
X017891Y010488D03*
X017891Y010483D03*
X017891Y010478D03*
X017891Y010472D03*
X017891Y010467D03*
X017891Y010461D03*
X017891Y010451D03*
X017891Y010445D03*
X017891Y010440D03*
X017891Y010434D03*
X017891Y010429D03*
X017891Y010424D03*
X017891Y010418D03*
X017891Y010407D03*
X017891Y010402D03*
X017891Y010397D03*
X017891Y010391D03*
X017891Y010386D03*
X017891Y010380D03*
X017891Y010375D03*
X017891Y010370D03*
X017891Y010359D03*
X017891Y010353D03*
X017891Y010348D03*
X017891Y010343D03*
X017891Y010337D03*
X017891Y010332D03*
X017891Y010326D03*
X017891Y010316D03*
X017891Y010310D03*
X017891Y010305D03*
X017891Y010299D03*
X017891Y010294D03*
X017891Y010289D03*
X017891Y010283D03*
X017891Y010272D03*
X017891Y010267D03*
X017891Y010262D03*
X017891Y010256D03*
X017891Y010251D03*
X017891Y010245D03*
X017891Y010240D03*
X017891Y010235D03*
X017891Y010224D03*
X017891Y010218D03*
X017891Y010213D03*
X017891Y010208D03*
X017891Y010202D03*
X017891Y010197D03*
X017891Y010191D03*
X017891Y010181D03*
X017891Y010175D03*
X017891Y010170D03*
X017891Y010164D03*
X017891Y010159D03*
X017891Y010154D03*
X017891Y010148D03*
X017891Y010137D03*
X017891Y010132D03*
X017891Y010127D03*
X017891Y010121D03*
X017891Y010116D03*
X017891Y010110D03*
X017891Y010105D03*
X017891Y010100D03*
X017891Y010089D03*
X017891Y010083D03*
X017891Y010078D03*
X017891Y010073D03*
X017891Y010067D03*
X017891Y010062D03*
X017891Y010056D03*
X017891Y010046D03*
X017891Y010040D03*
X017891Y010035D03*
X017891Y010029D03*
X017891Y010024D03*
X017891Y010019D03*
X017891Y010013D03*
X017891Y010002D03*
X017891Y009997D03*
X017891Y009992D03*
X017891Y009986D03*
X017891Y009981D03*
X017891Y009975D03*
X017891Y009970D03*
X017891Y009965D03*
X017891Y009954D03*
X017891Y009948D03*
X017891Y009943D03*
X017891Y009938D03*
X017891Y009932D03*
X017891Y009624D03*
X017891Y009619D03*
X017891Y009614D03*
X017891Y009608D03*
X017891Y009597D03*
X017891Y009592D03*
X017891Y009587D03*
X017891Y009581D03*
X017891Y009576D03*
X017891Y009570D03*
X017891Y009565D03*
X017891Y009560D03*
X017891Y009549D03*
X017891Y009543D03*
X017891Y009538D03*
X017891Y009533D03*
X017891Y009527D03*
X017891Y009522D03*
X017891Y009516D03*
X017891Y009506D03*
X017891Y009500D03*
X017891Y009495D03*
X017891Y009489D03*
X017891Y009484D03*
X017891Y009479D03*
X017891Y009473D03*
X017891Y009462D03*
X017891Y009457D03*
X017891Y009452D03*
X017891Y009446D03*
X017891Y009441D03*
X017891Y009435D03*
X017891Y009430D03*
X017891Y009425D03*
X017891Y009414D03*
X017891Y009408D03*
X017891Y009403D03*
X017891Y009398D03*
X017891Y009392D03*
X017891Y009387D03*
X017891Y009381D03*
X017891Y009371D03*
X017891Y009365D03*
X017891Y009360D03*
X017891Y009354D03*
X017891Y009349D03*
X017891Y009344D03*
X017891Y009338D03*
X017891Y009327D03*
X017891Y009322D03*
X017891Y009317D03*
X017891Y009311D03*
X017891Y009306D03*
X017891Y009300D03*
X017891Y009295D03*
X017891Y009290D03*
X017891Y009279D03*
X017891Y009273D03*
X017891Y009268D03*
X017891Y009263D03*
X017891Y009257D03*
X017891Y009252D03*
X017891Y009246D03*
X017891Y009236D03*
X017891Y009230D03*
X017891Y009225D03*
X017891Y009219D03*
X017891Y009214D03*
X017891Y009209D03*
X017891Y009203D03*
X017891Y009192D03*
X017891Y009187D03*
X017891Y009182D03*
X017891Y009176D03*
X017891Y009171D03*
X017891Y009165D03*
X017891Y009160D03*
X017891Y009155D03*
X017891Y009144D03*
X017891Y009138D03*
X017891Y009133D03*
X017891Y009128D03*
X017891Y009122D03*
X017891Y009117D03*
X017891Y009111D03*
X017891Y009101D03*
X017891Y009095D03*
X017891Y009090D03*
X017891Y009084D03*
X017891Y009079D03*
X017891Y009074D03*
X017891Y009068D03*
X017891Y009057D03*
X017891Y009052D03*
X017891Y009047D03*
X017891Y009041D03*
X017891Y009036D03*
X017891Y009030D03*
X017891Y009025D03*
X017891Y009020D03*
X017891Y009009D03*
X017891Y009003D03*
X017891Y008998D03*
X017891Y008993D03*
X017891Y008987D03*
X017891Y008982D03*
X017891Y008976D03*
X017891Y008966D03*
X017891Y008960D03*
X017891Y008955D03*
X017891Y008949D03*
X017891Y008944D03*
X017891Y008939D03*
X017891Y008933D03*
X017891Y008922D03*
X017891Y008917D03*
X017891Y008912D03*
X017891Y008906D03*
X017891Y008901D03*
X017891Y008895D03*
X017891Y008890D03*
X017891Y008885D03*
X017891Y008874D03*
X017891Y008868D03*
X017891Y008863D03*
X017891Y008858D03*
X017891Y008852D03*
X017891Y008847D03*
X017891Y008841D03*
X017891Y008831D03*
X017891Y008825D03*
X017891Y008820D03*
X017891Y008814D03*
X017891Y008809D03*
X017891Y008804D03*
X017891Y008798D03*
X017448Y008933D03*
X017448Y008939D03*
X018960Y008798D03*
X019409Y008917D03*
X019409Y008922D03*
X020683Y008458D03*
X020516Y007184D03*
X020510Y007178D03*
X020499Y007167D03*
X016212Y007362D03*
X016206Y007367D03*
X016201Y007373D03*
X016196Y007378D03*
X016190Y007383D03*
X016185Y007389D03*
X016174Y007400D03*
X016314Y011768D03*
X016320Y011774D03*
X016325Y011779D03*
X016331Y011784D03*
X016336Y011790D03*
X016341Y011795D03*
D184*
X020216Y012076D03*
X017429Y009014D03*
X016409Y007173D03*
D185*
X016179Y007394D03*
X017891Y008836D03*
X017891Y008879D03*
X017891Y008928D03*
X017891Y008971D03*
X017891Y009014D03*
X017891Y009063D03*
X017891Y009106D03*
X017891Y009149D03*
X017891Y009198D03*
X017891Y009241D03*
X017891Y009284D03*
X017891Y009333D03*
X017891Y009376D03*
X017891Y009419D03*
X017891Y009468D03*
X017891Y009511D03*
X017891Y009554D03*
X017891Y009603D03*
X017891Y009959D03*
X017891Y010008D03*
X017891Y010051D03*
X017891Y010094D03*
X017891Y010143D03*
X017891Y010186D03*
X017891Y010229D03*
X017891Y010278D03*
X017891Y010321D03*
X017891Y010364D03*
X017891Y010413D03*
X017891Y010456D03*
X017891Y010499D03*
X017891Y010548D03*
X017891Y010591D03*
X017891Y010634D03*
X017891Y010683D03*
X017891Y010726D03*
X017891Y010769D03*
X017891Y010818D03*
X017891Y010861D03*
X016309Y011763D03*
X020505Y007173D03*
D186*
X020524Y007189D03*
X020389Y007907D03*
X016160Y007416D03*
X016155Y007421D03*
X016150Y007427D03*
X016285Y011741D03*
X016290Y011747D03*
X016295Y011752D03*
X020426Y011919D03*
D187*
X020421Y011925D03*
X020416Y011930D03*
X020405Y011936D03*
X020394Y011946D03*
X016301Y011757D03*
X016279Y011736D03*
X016274Y011730D03*
X016268Y011725D03*
X017451Y008922D03*
X019406Y008912D03*
X019406Y008906D03*
X020540Y007205D03*
X020534Y007200D03*
X020529Y007194D03*
X016171Y007405D03*
X016166Y007410D03*
X016144Y007432D03*
D188*
X016142Y007437D03*
X016131Y007448D03*
X016125Y007454D03*
X016120Y007459D03*
X016115Y007464D03*
X017454Y008912D03*
X017454Y008917D03*
X019403Y008901D03*
X019403Y008895D03*
X020683Y008469D03*
X020683Y008463D03*
X020386Y007913D03*
X020570Y007232D03*
X020564Y007227D03*
X020559Y007221D03*
X020548Y007211D03*
X016266Y011720D03*
X020435Y011914D03*
X020440Y011909D03*
X020445Y011903D03*
D189*
X019422Y008971D03*
X016360Y007216D03*
D190*
X016136Y007443D03*
X020553Y007216D03*
X016260Y011714D03*
D191*
X016252Y011709D03*
X016247Y011703D03*
X016241Y011698D03*
X016236Y011693D03*
X016231Y011687D03*
X016225Y011682D03*
X016220Y011676D03*
X016209Y011666D03*
X016204Y011660D03*
X020459Y011892D03*
X020464Y011887D03*
X020480Y011876D03*
X020486Y011871D03*
X020491Y011865D03*
X019400Y008890D03*
X019400Y008885D03*
X020291Y008075D03*
X020389Y007918D03*
X020605Y007265D03*
X020594Y007254D03*
X020588Y007248D03*
X020583Y007243D03*
X020578Y007238D03*
X017456Y008901D03*
X017456Y008906D03*
X016069Y007518D03*
X016074Y007513D03*
X016079Y007508D03*
X016090Y007491D03*
X016101Y007481D03*
X016106Y007475D03*
X016112Y007470D03*
D192*
X016096Y007486D03*
X020599Y007259D03*
X016214Y011671D03*
X020453Y011898D03*
D193*
X020610Y007270D03*
D194*
X020618Y007275D03*
X020624Y007281D03*
X020629Y007286D03*
X020634Y007292D03*
X020591Y008625D03*
X019398Y008874D03*
X019403Y010488D03*
X019403Y010494D03*
X019403Y010505D03*
X019403Y010510D03*
X019403Y010515D03*
X019403Y010521D03*
X019403Y010526D03*
X019403Y010532D03*
X019403Y010537D03*
X019403Y010542D03*
X019403Y010553D03*
X019403Y010559D03*
X019403Y010564D03*
X019403Y010569D03*
X019403Y010575D03*
X019403Y010580D03*
X019403Y010586D03*
X020472Y011882D03*
X020499Y011860D03*
X020505Y011855D03*
X016196Y011649D03*
X016190Y011644D03*
X016185Y011639D03*
X016179Y011633D03*
X016169Y011622D03*
X016163Y011617D03*
X016034Y007562D03*
X016039Y007556D03*
X016050Y007540D03*
X016055Y007535D03*
X016082Y007502D03*
X016088Y007497D03*
D195*
X016047Y007545D03*
X016042Y007551D03*
X016031Y007567D03*
X016025Y007572D03*
X016015Y007583D03*
X016009Y007594D03*
X016004Y007599D03*
X015998Y007605D03*
X017462Y008885D03*
X019395Y008868D03*
X019395Y008863D03*
X020599Y008620D03*
X020680Y008480D03*
X020389Y007929D03*
X020659Y007319D03*
X020653Y007313D03*
X020642Y007302D03*
X020637Y007297D03*
X019406Y010596D03*
X020540Y011822D03*
X020534Y011828D03*
X020529Y011833D03*
X020524Y011838D03*
X020518Y011844D03*
X016160Y011612D03*
X016155Y011606D03*
X016150Y011601D03*
X016144Y011595D03*
X016139Y011590D03*
X016133Y011585D03*
D196*
X017462Y008879D03*
X016020Y007578D03*
X020648Y007308D03*
D197*
X020667Y007324D03*
X020672Y007329D03*
X020678Y007335D03*
X020683Y007340D03*
X020688Y007346D03*
X020305Y008064D03*
X020683Y008485D03*
X020602Y008615D03*
X019409Y010602D03*
X020575Y011790D03*
X020553Y011811D03*
X020548Y011817D03*
X016125Y011574D03*
X016120Y011568D03*
X016098Y011541D03*
X016088Y011531D03*
X016082Y011525D03*
X015958Y007659D03*
X015963Y007653D03*
X015985Y007626D03*
X015990Y007616D03*
X015996Y007610D03*
X016012Y007589D03*
D198*
X016220Y007351D03*
X018958Y008836D03*
X018958Y008879D03*
X018958Y008928D03*
X018958Y008971D03*
X018958Y009014D03*
X018958Y009063D03*
X018958Y009106D03*
X018958Y009149D03*
X018958Y009198D03*
X018958Y009241D03*
X018958Y009284D03*
X018958Y009333D03*
X018958Y009376D03*
X018958Y009419D03*
X018958Y009468D03*
X018958Y009511D03*
X018958Y009554D03*
X018958Y009603D03*
X018958Y009959D03*
X018958Y010008D03*
X018958Y010051D03*
X018958Y010094D03*
X018958Y010143D03*
X018958Y010186D03*
X018958Y010229D03*
X018958Y010278D03*
X018958Y010321D03*
X018958Y010364D03*
X018958Y010413D03*
X018958Y010456D03*
X018958Y010499D03*
X018958Y010548D03*
X018958Y010591D03*
X018958Y010634D03*
X018958Y010683D03*
X018958Y010726D03*
X018958Y010769D03*
X018958Y010818D03*
X018958Y010861D03*
X016355Y011806D03*
X019411Y008928D03*
D199*
X020694Y007351D03*
X020559Y011806D03*
D200*
X020583Y011784D03*
X020588Y011779D03*
X020594Y011774D03*
X020599Y011768D03*
X020610Y011757D03*
X017467Y008863D03*
X017467Y008858D03*
X015928Y007702D03*
X015928Y007697D03*
X015934Y007691D03*
X015939Y007686D03*
X015944Y007680D03*
X015944Y007675D03*
X015950Y007670D03*
X015966Y007648D03*
X015923Y007707D03*
X019390Y008841D03*
X019390Y008847D03*
X020313Y008058D03*
X020680Y008490D03*
X020729Y007389D03*
X020723Y007383D03*
X020718Y007378D03*
X020713Y007373D03*
X020707Y007367D03*
X020702Y007362D03*
X020696Y007356D03*
X016052Y011487D03*
X016047Y011482D03*
X016042Y011477D03*
X016058Y011498D03*
X016063Y011504D03*
X016069Y011509D03*
X016074Y011514D03*
X016079Y011520D03*
D201*
X016058Y011493D03*
X020605Y011763D03*
X020610Y008609D03*
X020389Y007934D03*
X020734Y007394D03*
X015955Y007664D03*
D202*
X015893Y007751D03*
X015882Y007767D03*
X015877Y007772D03*
X017470Y008847D03*
X017470Y008852D03*
X019387Y008831D03*
X020386Y007940D03*
X020753Y007416D03*
X020748Y007410D03*
X020742Y007405D03*
X020737Y007400D03*
X016023Y011450D03*
X016023Y011455D03*
X016028Y011460D03*
X016012Y011439D03*
X020618Y011752D03*
X020645Y011725D03*
D203*
X018423Y007497D03*
X018423Y007491D03*
X018423Y007481D03*
X018423Y007475D03*
X018423Y007470D03*
X018423Y007464D03*
X018423Y007459D03*
X018423Y007454D03*
X018423Y007448D03*
X018423Y007437D03*
X018423Y007432D03*
X018423Y007427D03*
X018423Y007421D03*
X018423Y007416D03*
X018423Y007410D03*
D204*
X020321Y008053D03*
X020683Y008496D03*
X020769Y007432D03*
X020764Y007427D03*
X020759Y007421D03*
X015915Y007718D03*
X015909Y007724D03*
X015909Y007729D03*
X015904Y007734D03*
X015899Y007740D03*
X015899Y007745D03*
X015866Y007788D03*
X015990Y011412D03*
X015996Y011417D03*
X016007Y011433D03*
X016034Y011466D03*
X016039Y011471D03*
X020624Y011747D03*
X020629Y011741D03*
X020634Y011736D03*
X020640Y011730D03*
D205*
X020648Y011720D03*
X020659Y011709D03*
X020664Y011703D03*
X020669Y011698D03*
X019384Y008825D03*
X019384Y008820D03*
X020615Y008604D03*
X020680Y008501D03*
X020389Y007945D03*
X020821Y007491D03*
X020799Y007464D03*
X020794Y007459D03*
X020788Y007454D03*
X020783Y007448D03*
X020772Y007437D03*
X017473Y008841D03*
X015858Y007805D03*
X015853Y007810D03*
X015847Y007815D03*
X015847Y007821D03*
X015842Y007826D03*
X015836Y007832D03*
X015831Y007842D03*
X015863Y007794D03*
X015869Y007783D03*
X015874Y007778D03*
X015885Y007761D03*
X015955Y011363D03*
X015961Y011374D03*
X015966Y011379D03*
X015971Y011385D03*
X015977Y011390D03*
X015977Y011396D03*
X015988Y011406D03*
X015998Y011423D03*
X016004Y011428D03*
D206*
X018423Y007486D03*
X018423Y007443D03*
D207*
X017473Y008836D03*
X015858Y007799D03*
X020777Y007443D03*
X015950Y011358D03*
X015982Y011401D03*
X020653Y011714D03*
D208*
X020683Y011687D03*
X020688Y011682D03*
X020694Y011676D03*
X020705Y011666D03*
X020710Y011660D03*
X019382Y008814D03*
X019382Y008809D03*
X020327Y008048D03*
X020386Y007950D03*
X020829Y007502D03*
X020823Y007497D03*
X020834Y007508D03*
X020840Y007513D03*
X020807Y007475D03*
X020802Y007470D03*
X020624Y008598D03*
X017475Y008825D03*
X017475Y008831D03*
X015823Y007859D03*
X015823Y007853D03*
X015834Y007837D03*
X015812Y007869D03*
X015812Y007875D03*
X015807Y007880D03*
X015796Y007896D03*
X015791Y007907D03*
X015785Y007918D03*
X015920Y011315D03*
X015920Y011320D03*
X015926Y011325D03*
X015931Y011331D03*
X015936Y011336D03*
X015936Y011342D03*
X015942Y011347D03*
X015947Y011352D03*
X015958Y011369D03*
D209*
X015904Y011293D03*
X020678Y011693D03*
X015818Y007864D03*
X020813Y007481D03*
D210*
X020818Y007486D03*
X015828Y007848D03*
X015801Y007891D03*
X015915Y011309D03*
X020699Y011671D03*
D211*
X018431Y007518D03*
X018431Y007513D03*
D212*
X020335Y008042D03*
X020389Y007956D03*
X020869Y007551D03*
X020875Y007556D03*
X020880Y007562D03*
X020864Y007540D03*
X020858Y007535D03*
X020848Y007524D03*
X020842Y007518D03*
X020680Y008507D03*
X020632Y008593D03*
X019379Y008798D03*
X019379Y008804D03*
X017478Y008814D03*
X017478Y008820D03*
X015804Y007886D03*
X015793Y007902D03*
X015788Y007913D03*
X015782Y007923D03*
X015777Y007929D03*
X015772Y007940D03*
X015766Y007945D03*
X015766Y007950D03*
X015761Y007956D03*
X015761Y007961D03*
X015755Y007967D03*
X015750Y007977D03*
X015745Y007988D03*
X015734Y008004D03*
X015728Y008015D03*
X019395Y010931D03*
X019395Y010937D03*
X020713Y011655D03*
X020718Y011649D03*
X020723Y011644D03*
X020729Y011639D03*
X020734Y011633D03*
X020745Y011622D03*
X020750Y011617D03*
X015912Y011304D03*
X015907Y011298D03*
X015901Y011288D03*
X015896Y011282D03*
X015890Y011277D03*
X015890Y011271D03*
X015880Y011261D03*
X015880Y011255D03*
X015874Y011250D03*
X015869Y011244D03*
X015863Y011234D03*
X015858Y011228D03*
X015853Y011217D03*
X015842Y011201D03*
X015831Y011185D03*
D213*
X016201Y011655D03*
X017459Y008895D03*
X017459Y008890D03*
X016066Y007524D03*
X020386Y007923D03*
D214*
X020300Y008069D03*
X020683Y008474D03*
X019398Y008879D03*
X019403Y010499D03*
X019403Y010548D03*
X019403Y010591D03*
X020510Y011849D03*
X016174Y011628D03*
X016061Y007529D03*
D215*
X018431Y007529D03*
D216*
X020853Y007529D03*
X015885Y011266D03*
X020740Y011628D03*
D217*
X019233Y012492D03*
X017645Y012486D03*
X018434Y007535D03*
D218*
X018431Y007540D03*
D219*
X018434Y007545D03*
D220*
X020386Y007961D03*
X020899Y007589D03*
X020899Y007583D03*
X020904Y007594D03*
X020910Y007599D03*
X020915Y007605D03*
X020888Y007572D03*
X020883Y007567D03*
X020867Y007545D03*
X020683Y008512D03*
X019376Y008787D03*
X017481Y008804D03*
X017481Y008809D03*
X015753Y007972D03*
X015742Y007994D03*
X015737Y007999D03*
X015731Y008010D03*
X015726Y008021D03*
X015720Y008031D03*
X015715Y008037D03*
X015715Y008042D03*
X015710Y008048D03*
X015710Y008053D03*
X015704Y008058D03*
X015693Y008080D03*
X015688Y008091D03*
X015683Y008102D03*
X015677Y008112D03*
X015672Y008123D03*
X019392Y010942D03*
X019392Y010947D03*
X020753Y011612D03*
X020759Y011606D03*
X020764Y011601D03*
X020769Y011595D03*
X020775Y011590D03*
X020780Y011585D03*
X020791Y011568D03*
X020796Y011563D03*
X020802Y011558D03*
X020807Y011552D03*
X015866Y011239D03*
X015850Y011212D03*
X015845Y011207D03*
X015839Y011196D03*
X015834Y011190D03*
X015828Y011180D03*
X015823Y011169D03*
X015818Y011163D03*
X015812Y011153D03*
X015807Y011147D03*
X015801Y011136D03*
X015791Y011120D03*
D221*
X018431Y007551D03*
D222*
X018434Y007556D03*
D223*
X018431Y007572D03*
D224*
X018434Y007578D03*
D225*
X019376Y008793D03*
X020926Y007621D03*
X020894Y007578D03*
X015747Y007983D03*
X015720Y008026D03*
X015699Y008069D03*
X015823Y011174D03*
X015855Y011223D03*
D226*
X019198Y012497D03*
X018431Y007583D03*
D227*
X018434Y007589D03*
D228*
X018431Y007594D03*
D229*
X018434Y007599D03*
D230*
X018434Y007610D03*
D231*
X020340Y008037D03*
X020929Y007626D03*
X020934Y007632D03*
X020939Y007637D03*
X020923Y007616D03*
X020918Y007610D03*
X020956Y007659D03*
X020966Y007675D03*
X020637Y008588D03*
X019390Y010958D03*
X020788Y011574D03*
X020826Y011531D03*
X020831Y011525D03*
X020848Y011504D03*
X020853Y011498D03*
X015804Y011142D03*
X015793Y011126D03*
X015788Y011115D03*
X015782Y011109D03*
X015782Y011104D03*
X015777Y011099D03*
X015777Y011093D03*
X015766Y011082D03*
X015766Y011077D03*
X015761Y011072D03*
X015761Y011066D03*
X015755Y011061D03*
X015750Y011050D03*
X015642Y008183D03*
X015647Y008172D03*
X015658Y008150D03*
X015664Y008139D03*
X015669Y008129D03*
X015691Y008085D03*
X015696Y008075D03*
X015701Y008064D03*
D232*
X018431Y007616D03*
X017713Y012497D03*
D233*
X016131Y011579D03*
X016093Y011536D03*
X015985Y007621D03*
D234*
X018434Y007621D03*
D235*
X018431Y007626D03*
D236*
X019392Y008852D03*
X019392Y008858D03*
X017465Y008868D03*
X017465Y008874D03*
X015980Y007632D03*
X015974Y007637D03*
X015969Y007643D03*
X016104Y011547D03*
X016104Y011552D03*
X016109Y011558D03*
X016115Y011563D03*
X020564Y011801D03*
X020570Y011795D03*
D237*
X018434Y007632D03*
D238*
X018431Y007637D03*
D239*
X018434Y007643D03*
D240*
X019373Y008777D03*
X019373Y008782D03*
X020680Y008517D03*
X020950Y007653D03*
X020945Y007648D03*
X020945Y007643D03*
X017483Y008798D03*
X015685Y008096D03*
X015680Y008107D03*
X015637Y008193D03*
X015728Y011012D03*
X015815Y011158D03*
X020810Y011547D03*
X020815Y011541D03*
D241*
X018431Y007648D03*
D242*
X018434Y007653D03*
D243*
X018431Y007659D03*
X019149Y012503D03*
D244*
X018434Y007664D03*
D245*
X020354Y008026D03*
X020683Y008523D03*
X020958Y007664D03*
X015672Y010904D03*
X015720Y010996D03*
X015591Y008296D03*
X015612Y008253D03*
X015634Y008204D03*
X020856Y011493D03*
D246*
X018447Y012702D03*
X018431Y007670D03*
D247*
X019371Y008766D03*
X019371Y008771D03*
X020348Y008031D03*
X020386Y007972D03*
X020386Y007967D03*
X020316Y007842D03*
X020964Y007670D03*
X020969Y007680D03*
X020975Y007686D03*
X020980Y007691D03*
X020985Y007702D03*
X020991Y007707D03*
X021002Y007724D03*
X020645Y008582D03*
X017486Y008782D03*
X017486Y008787D03*
X015666Y008134D03*
X015661Y008145D03*
X015656Y008156D03*
X015650Y008166D03*
X015645Y008177D03*
X015639Y008188D03*
X015634Y008199D03*
X015629Y008210D03*
X015629Y008215D03*
X015623Y008220D03*
X015623Y008226D03*
X015618Y008231D03*
X015618Y008237D03*
X015618Y008242D03*
X015612Y008247D03*
X015607Y008258D03*
X015607Y008264D03*
X015602Y008269D03*
X015602Y008274D03*
X015596Y008285D03*
X015585Y008312D03*
X015580Y008323D03*
X015666Y010893D03*
X015677Y010915D03*
X015683Y010926D03*
X015688Y010937D03*
X015693Y010947D03*
X015699Y010958D03*
X015704Y010969D03*
X015710Y010974D03*
X015710Y010980D03*
X015715Y010985D03*
X015715Y010991D03*
X015720Y011001D03*
X015726Y011007D03*
X015731Y011018D03*
X015737Y011023D03*
X015737Y011028D03*
X015742Y011034D03*
X015747Y011045D03*
X015753Y011055D03*
X019387Y010964D03*
X020834Y011520D03*
X020840Y011514D03*
X020845Y011509D03*
X020861Y011487D03*
X020867Y011482D03*
X020872Y011477D03*
X020883Y011460D03*
X020888Y011455D03*
D248*
X018431Y007680D03*
D249*
X018434Y007686D03*
D250*
X018431Y007691D03*
D251*
X018434Y007697D03*
D252*
X020983Y007697D03*
X021004Y007729D03*
X021010Y007734D03*
X021015Y007740D03*
X021015Y007745D03*
X021020Y007751D03*
X021047Y007788D03*
X019384Y010969D03*
X019384Y010974D03*
X020875Y011471D03*
X020880Y011466D03*
X020891Y011450D03*
X020912Y011423D03*
X020918Y011417D03*
X020923Y011412D03*
X020934Y011396D03*
X015701Y010964D03*
X015669Y010899D03*
X015664Y010888D03*
X015664Y010883D03*
X015658Y010877D03*
X015653Y010866D03*
X015647Y010856D03*
X015626Y010807D03*
X015620Y010796D03*
X015615Y010785D03*
X015534Y008442D03*
X015561Y008372D03*
X015561Y008366D03*
X015566Y008361D03*
X015566Y008355D03*
X015572Y008350D03*
X015572Y008345D03*
X015577Y008334D03*
X015577Y008328D03*
X015583Y008318D03*
D253*
X018431Y007702D03*
D254*
X018434Y007707D03*
D255*
X019387Y008836D03*
X015920Y007713D03*
X015888Y007756D03*
X016017Y011444D03*
D256*
X018431Y007713D03*
D257*
X020993Y007713D03*
X015556Y008388D03*
X015631Y010818D03*
X020896Y011444D03*
D258*
X018434Y007718D03*
D259*
X019368Y008755D03*
X019368Y008760D03*
X020680Y008528D03*
X021042Y007783D03*
X021037Y007772D03*
X021031Y007767D03*
X020999Y007718D03*
X017489Y008771D03*
X017489Y008777D03*
X015599Y008280D03*
X015593Y008291D03*
X015588Y008301D03*
X015588Y008307D03*
X015556Y008382D03*
X015550Y008393D03*
X015550Y008399D03*
X015545Y008409D03*
X015545Y008415D03*
X015539Y008426D03*
X015631Y010823D03*
X015637Y010834D03*
X015642Y010845D03*
X015674Y010910D03*
X015680Y010920D03*
X015685Y010931D03*
X015691Y010942D03*
X020902Y011439D03*
X020907Y011433D03*
X020907Y011428D03*
D260*
X018431Y007724D03*
D261*
X018434Y007729D03*
D262*
X018431Y007734D03*
D263*
X018434Y007740D03*
D264*
X018431Y007745D03*
D265*
X018434Y007751D03*
D266*
X018431Y007756D03*
D267*
X021026Y007756D03*
X015696Y010953D03*
X015572Y008339D03*
D268*
X018434Y007761D03*
D269*
X019365Y008750D03*
X020359Y008021D03*
X020386Y007977D03*
X021029Y007761D03*
X021039Y007778D03*
X021050Y007794D03*
X021056Y007805D03*
X021061Y007810D03*
X021066Y007815D03*
X021066Y007821D03*
X021072Y007826D03*
X021077Y007837D03*
X021083Y007842D03*
X021088Y007853D03*
X021099Y007869D03*
X020651Y008577D03*
X017492Y008760D03*
X017492Y008766D03*
X015558Y008377D03*
X015548Y008404D03*
X015542Y008420D03*
X015537Y008436D03*
X015531Y008447D03*
X015531Y008453D03*
X015526Y008458D03*
X015526Y008463D03*
X015526Y008469D03*
X015521Y008480D03*
X015521Y008485D03*
X015515Y008490D03*
X015515Y008496D03*
X015515Y008501D03*
X015510Y008507D03*
X015510Y008512D03*
X015504Y008528D03*
X015499Y008539D03*
X015499Y008544D03*
X015494Y008555D03*
X015494Y008561D03*
X015488Y008577D03*
X015483Y008593D03*
X015467Y008647D03*
X015542Y010607D03*
X015548Y010623D03*
X015558Y010650D03*
X015564Y010661D03*
X015569Y010677D03*
X015575Y010688D03*
X015575Y010694D03*
X015580Y010704D03*
X015585Y010715D03*
X015585Y010721D03*
X015591Y010731D03*
X015596Y010737D03*
X015596Y010742D03*
X015596Y010748D03*
X015602Y010753D03*
X015602Y010758D03*
X015607Y010764D03*
X015612Y010775D03*
X015612Y010780D03*
X015618Y010791D03*
X015623Y010802D03*
X015629Y010812D03*
X015634Y010829D03*
X015639Y010839D03*
X015645Y010850D03*
X015656Y010872D03*
X019382Y010980D03*
X020926Y011406D03*
X020937Y011390D03*
X020942Y011385D03*
X020948Y011379D03*
X020953Y011374D03*
X020953Y011369D03*
X020958Y011363D03*
X020975Y011342D03*
X020991Y011320D03*
D270*
X018431Y007767D03*
D271*
X018434Y007772D03*
D272*
X018431Y007778D03*
D273*
X018434Y007783D03*
D274*
X018434Y007794D03*
D275*
X018431Y007799D03*
D276*
X019365Y008744D03*
X020386Y007983D03*
X021056Y007799D03*
X015650Y010861D03*
X015607Y010769D03*
X015591Y010726D03*
X015477Y008609D03*
X015504Y008523D03*
X015521Y008474D03*
X015537Y008431D03*
X020931Y011401D03*
X020964Y011358D03*
D277*
X018434Y007805D03*
D278*
X018431Y007810D03*
D279*
X018434Y007815D03*
D280*
X018431Y007821D03*
D281*
X018434Y007826D03*
D282*
X018431Y007832D03*
D283*
X019363Y008739D03*
X020367Y008015D03*
X020680Y008534D03*
X020680Y008539D03*
X021128Y007918D03*
X021123Y007907D03*
X021118Y007902D03*
X021118Y007896D03*
X021096Y007864D03*
X021091Y007859D03*
X021074Y007832D03*
X017494Y008750D03*
X017494Y008755D03*
X015507Y008517D03*
X015502Y008534D03*
X015496Y008550D03*
X015491Y008571D03*
X015469Y008631D03*
X015469Y008636D03*
X015469Y008642D03*
X015464Y008652D03*
X015464Y008663D03*
X015458Y008669D03*
X015458Y008674D03*
X015458Y008679D03*
X015453Y008690D03*
X015453Y008696D03*
X015448Y008712D03*
X015448Y008717D03*
X015426Y008798D03*
X015426Y008804D03*
X015421Y008825D03*
X015491Y010461D03*
X015496Y010478D03*
X015502Y010494D03*
X015507Y010510D03*
X015512Y010521D03*
X015512Y010526D03*
X015534Y010580D03*
X015534Y010586D03*
X015539Y010596D03*
X015539Y010602D03*
X015545Y010613D03*
X015545Y010618D03*
X015550Y010629D03*
X015556Y010640D03*
X015556Y010645D03*
X015561Y010656D03*
X015583Y010710D03*
X019379Y010985D03*
X020983Y011331D03*
X020988Y011325D03*
X020993Y011315D03*
X021004Y011298D03*
X021031Y011261D03*
D284*
X018434Y007837D03*
D285*
X019662Y008404D03*
X020375Y008193D03*
X020192Y007837D03*
D286*
X018431Y007842D03*
D287*
X018431Y007848D03*
D288*
X020391Y007848D03*
D289*
X021085Y007848D03*
X020999Y011309D03*
X015550Y010634D03*
X015534Y010591D03*
X015453Y008701D03*
X015464Y008658D03*
X015491Y008566D03*
D290*
X018431Y007859D03*
X018431Y007853D03*
D291*
X018431Y007864D03*
X018431Y007869D03*
D292*
X018431Y007875D03*
X018431Y007880D03*
D293*
X020659Y008571D03*
X021145Y007945D03*
X021107Y007886D03*
X021107Y007880D03*
X021101Y007875D03*
X021020Y011277D03*
X021010Y011293D03*
X020977Y011336D03*
X020972Y011347D03*
X020966Y011352D03*
X015577Y010699D03*
X015566Y010672D03*
X015566Y010667D03*
X015529Y010575D03*
X015529Y010569D03*
X015523Y010559D03*
X015523Y010553D03*
X015518Y010542D03*
X015518Y010537D03*
X015475Y010407D03*
X015431Y008782D03*
X015431Y008777D03*
X015437Y008760D03*
X015437Y008755D03*
X015442Y008739D03*
X015442Y008733D03*
X015475Y008625D03*
X015475Y008620D03*
X015475Y008615D03*
X015480Y008604D03*
X015480Y008598D03*
X015485Y008588D03*
X015485Y008582D03*
D294*
X018431Y007886D03*
D295*
X018431Y007891D03*
D296*
X020389Y007891D03*
D297*
X021112Y007891D03*
X015572Y010683D03*
D298*
X018431Y007902D03*
X018431Y007896D03*
D299*
X018431Y007907D03*
X018431Y007913D03*
D300*
X017497Y008739D03*
X015456Y008685D03*
X015450Y008706D03*
X015445Y008723D03*
X015445Y008728D03*
X015440Y008750D03*
X015434Y008766D03*
X015434Y008771D03*
X015429Y008787D03*
X015423Y008809D03*
X015423Y008814D03*
X015423Y008820D03*
X015418Y008831D03*
X015418Y008841D03*
X015418Y008847D03*
X015413Y008852D03*
X015413Y008858D03*
X015413Y008863D03*
X015413Y008868D03*
X015413Y008874D03*
X015407Y008885D03*
X015407Y008890D03*
X015407Y008895D03*
X015407Y008901D03*
X015402Y008906D03*
X015402Y008912D03*
X015402Y008917D03*
X015402Y008922D03*
X015396Y008933D03*
X015396Y008939D03*
X015396Y008944D03*
X015396Y008949D03*
X015391Y008966D03*
X015391Y008976D03*
X015391Y008982D03*
X015386Y008998D03*
X015386Y009003D03*
X015386Y009009D03*
X015380Y009036D03*
X015380Y009041D03*
X015380Y009047D03*
X015375Y009074D03*
X015375Y009079D03*
X015369Y009111D03*
X015369Y009117D03*
X015364Y009160D03*
X015396Y010083D03*
X015402Y010110D03*
X015407Y010137D03*
X015413Y010164D03*
X015418Y010191D03*
X015423Y010213D03*
X015423Y010218D03*
X015429Y010235D03*
X015429Y010240D03*
X015434Y010256D03*
X015434Y010262D03*
X015440Y010283D03*
X015445Y010299D03*
X015445Y010305D03*
X015450Y010316D03*
X015450Y010326D03*
X015456Y010337D03*
X015456Y010343D03*
X015456Y010348D03*
X015461Y010353D03*
X015461Y010359D03*
X015461Y010370D03*
X015467Y010375D03*
X015467Y010380D03*
X015467Y010386D03*
X015472Y010391D03*
X015472Y010397D03*
X015472Y010402D03*
X015477Y010418D03*
X015477Y010424D03*
X015483Y010429D03*
X015483Y010434D03*
X015483Y010440D03*
X015488Y010445D03*
X015488Y010451D03*
X015494Y010467D03*
X015494Y010472D03*
X015499Y010483D03*
X015499Y010488D03*
X015504Y010505D03*
X015510Y010515D03*
X015515Y010532D03*
X015526Y010564D03*
X019376Y010991D03*
X021002Y011304D03*
X021012Y011288D03*
X021018Y011282D03*
X021023Y011271D03*
X021034Y011255D03*
X021039Y011250D03*
X021045Y011244D03*
X021045Y011239D03*
X021050Y011234D03*
X021056Y011228D03*
X021061Y011217D03*
X021066Y011207D03*
X021072Y011201D03*
X021196Y008037D03*
X021185Y008015D03*
X021180Y008004D03*
X021174Y007999D03*
X021169Y007988D03*
X021164Y007977D03*
X021158Y007972D03*
X021158Y007967D03*
X021153Y007961D03*
X021153Y007956D03*
X021147Y007950D03*
X021142Y007940D03*
X021137Y007929D03*
X021131Y007923D03*
X021126Y007913D03*
X020386Y007988D03*
D301*
X018431Y007923D03*
X018431Y007918D03*
D302*
X018431Y007929D03*
X017880Y012503D03*
D303*
X015774Y007934D03*
D304*
X018431Y007934D03*
D305*
X017497Y008744D03*
X015440Y008744D03*
X015429Y008793D03*
X015418Y008836D03*
X015407Y008879D03*
X015391Y008971D03*
X015418Y010186D03*
X015440Y010278D03*
X015450Y010321D03*
X015461Y010364D03*
X015477Y010413D03*
X015488Y010456D03*
X015504Y010499D03*
X015521Y010548D03*
X020667Y008566D03*
X021191Y008026D03*
X021137Y007934D03*
X021056Y011223D03*
X021029Y011266D03*
D306*
X018431Y007945D03*
X018431Y007940D03*
D307*
X018431Y007961D03*
X018431Y007967D03*
D308*
X018431Y007972D03*
X018431Y007977D03*
D309*
X018431Y007983D03*
D310*
X021166Y007983D03*
X021215Y008069D03*
X021091Y011174D03*
X015426Y010229D03*
X015410Y010143D03*
X015399Y010094D03*
X015383Y010008D03*
X015377Y009959D03*
X015372Y009916D03*
X015367Y009873D03*
X015361Y009824D03*
X015356Y009781D03*
X015350Y009689D03*
X015350Y009333D03*
X015350Y009284D03*
X015356Y009241D03*
X015361Y009198D03*
X015367Y009149D03*
X015372Y009106D03*
X015377Y009063D03*
X015383Y009014D03*
X015399Y008928D03*
D311*
X018431Y007988D03*
D312*
X018431Y007994D03*
X018431Y007999D03*
D313*
X020383Y007994D03*
X021193Y008031D03*
X021242Y008123D03*
X021107Y011142D03*
X021107Y011147D03*
X015437Y010272D03*
X015437Y010267D03*
X015388Y010046D03*
X015388Y010040D03*
X015388Y010035D03*
X015388Y010029D03*
X015388Y010024D03*
X015345Y009635D03*
X015345Y009630D03*
X015345Y009624D03*
X015345Y009619D03*
X015345Y009614D03*
X015345Y009608D03*
X015345Y009597D03*
X015345Y009592D03*
X015345Y009587D03*
X015345Y009581D03*
X015345Y009576D03*
X015345Y009570D03*
X015345Y009565D03*
X015345Y009560D03*
X015345Y009549D03*
X015345Y009543D03*
X015345Y009538D03*
X015345Y009533D03*
X015345Y009527D03*
X015345Y009522D03*
X015345Y009516D03*
X015345Y009506D03*
X015345Y009500D03*
X015345Y009495D03*
X015345Y009489D03*
X015345Y009484D03*
X015345Y009479D03*
X015345Y009473D03*
X015345Y009462D03*
X015345Y009457D03*
X015345Y009452D03*
X015345Y009446D03*
X015345Y009441D03*
X015345Y009435D03*
X015345Y009430D03*
X015345Y009425D03*
X015345Y009414D03*
X015345Y009408D03*
X015345Y009403D03*
X015345Y009398D03*
X015345Y009392D03*
X015345Y009387D03*
X015345Y009381D03*
X015388Y008993D03*
X015388Y008987D03*
D314*
X015394Y008960D03*
X015394Y008955D03*
X015383Y009020D03*
X015383Y009025D03*
X015383Y009030D03*
X015377Y009052D03*
X015377Y009057D03*
X015377Y009068D03*
X015372Y009084D03*
X015372Y009090D03*
X015372Y009095D03*
X015372Y009101D03*
X015367Y009122D03*
X015367Y009128D03*
X015367Y009133D03*
X015367Y009138D03*
X015367Y009144D03*
X015367Y009155D03*
X015361Y009165D03*
X015361Y009171D03*
X015361Y009176D03*
X015361Y009182D03*
X015361Y009187D03*
X015361Y009192D03*
X015361Y009203D03*
X015361Y009209D03*
X015356Y009214D03*
X015356Y009219D03*
X015356Y009225D03*
X015356Y009230D03*
X015356Y009236D03*
X015356Y009246D03*
X015356Y009252D03*
X015356Y009257D03*
X015356Y009263D03*
X015356Y009268D03*
X015356Y009273D03*
X015350Y009290D03*
X015350Y009295D03*
X015350Y009300D03*
X015350Y009306D03*
X015350Y009311D03*
X015350Y009317D03*
X015350Y009322D03*
X015350Y009327D03*
X015350Y009338D03*
X015350Y009344D03*
X015350Y009349D03*
X015350Y009684D03*
X015350Y009695D03*
X015350Y009700D03*
X015350Y009705D03*
X015350Y009711D03*
X015350Y009716D03*
X015350Y009722D03*
X015350Y009727D03*
X015350Y009732D03*
X015356Y009765D03*
X015356Y009770D03*
X015356Y009776D03*
X015356Y009786D03*
X015356Y009792D03*
X015356Y009797D03*
X015356Y009803D03*
X015361Y009830D03*
X015361Y009835D03*
X015361Y009840D03*
X015361Y009846D03*
X015361Y009851D03*
X015361Y009857D03*
X015367Y009878D03*
X015367Y009884D03*
X015367Y009889D03*
X015367Y009894D03*
X015367Y009900D03*
X015367Y009905D03*
X015372Y009921D03*
X015372Y009927D03*
X015372Y009932D03*
X015372Y009938D03*
X015372Y009943D03*
X015377Y009965D03*
X015377Y009970D03*
X015377Y009975D03*
X015377Y009981D03*
X015377Y009986D03*
X015383Y009992D03*
X015383Y009997D03*
X015383Y010002D03*
X015383Y010013D03*
X015383Y010019D03*
X015394Y010056D03*
X015394Y010062D03*
X015394Y010067D03*
X015394Y010073D03*
X015394Y010078D03*
X015399Y010089D03*
X015399Y010100D03*
X015399Y010105D03*
X015404Y010116D03*
X015404Y010121D03*
X015404Y010127D03*
X015404Y010132D03*
X015410Y010148D03*
X015410Y010154D03*
X015410Y010159D03*
X015415Y010170D03*
X015415Y010175D03*
X015415Y010181D03*
X015421Y010197D03*
X015421Y010202D03*
X015421Y010208D03*
X015426Y010224D03*
X015431Y010245D03*
X015431Y010251D03*
X015442Y010289D03*
X015442Y010294D03*
X015448Y010310D03*
X015453Y010332D03*
X020372Y008010D03*
X020680Y008544D03*
X020669Y008561D03*
X021236Y008112D03*
X021231Y008102D03*
X021226Y008091D03*
X021220Y008080D03*
X021215Y008075D03*
X021209Y008064D03*
X021209Y008058D03*
X021204Y008053D03*
X021204Y008048D03*
X021199Y008042D03*
X021188Y008021D03*
X021182Y008010D03*
X021172Y007994D03*
X021145Y011082D03*
X021128Y011109D03*
X021123Y011120D03*
X021118Y011126D03*
X021112Y011136D03*
X021101Y011153D03*
X021096Y011163D03*
X021091Y011169D03*
X021085Y011180D03*
X021080Y011185D03*
X021080Y011190D03*
X021074Y011196D03*
X021064Y011212D03*
D315*
X021099Y011158D03*
X021126Y011115D03*
X021131Y011104D03*
X021137Y011099D03*
X021137Y011093D03*
X021147Y011077D03*
X021153Y011072D03*
X021153Y011066D03*
X021158Y011061D03*
X021158Y011055D03*
X021164Y011050D03*
X021174Y011028D03*
X021185Y011012D03*
X021191Y011001D03*
X021196Y010991D03*
X020678Y008555D03*
X020678Y008550D03*
X020381Y008004D03*
X020386Y007999D03*
X021223Y008085D03*
X021228Y008096D03*
X021234Y008107D03*
X021245Y008129D03*
X021245Y008134D03*
X021250Y008139D03*
X021250Y008145D03*
X021255Y008150D03*
X021255Y008156D03*
X021261Y008166D03*
X021266Y008172D03*
X021266Y008177D03*
X021272Y008183D03*
X021272Y008188D03*
X021277Y008199D03*
X021282Y008210D03*
X021288Y008220D03*
X021293Y008231D03*
X015353Y009279D03*
X015348Y009354D03*
X015348Y009360D03*
X015348Y009365D03*
X015348Y009371D03*
X015348Y009641D03*
X015348Y009651D03*
X015348Y009657D03*
X015348Y009662D03*
X015348Y009668D03*
X015348Y009673D03*
X015348Y009678D03*
X015353Y009743D03*
X015353Y009749D03*
X015353Y009754D03*
X015353Y009759D03*
X015359Y009808D03*
X015359Y009813D03*
X015359Y009819D03*
X015364Y009862D03*
X015364Y009867D03*
X015369Y009911D03*
X015375Y009948D03*
X015375Y009954D03*
D316*
X018431Y008010D03*
X018431Y008004D03*
D317*
X018431Y008015D03*
X018431Y008021D03*
D318*
X018431Y008026D03*
X018426Y009646D03*
X018426Y009689D03*
X018426Y009738D03*
X018426Y009781D03*
X018426Y009824D03*
X018426Y009873D03*
X018426Y009916D03*
D319*
X018426Y009911D03*
X018426Y009905D03*
X018426Y009900D03*
X018426Y009894D03*
X018426Y009889D03*
X018426Y009884D03*
X018426Y009878D03*
X018426Y009867D03*
X018426Y009862D03*
X018426Y009857D03*
X018426Y009851D03*
X018426Y009846D03*
X018426Y009840D03*
X018426Y009835D03*
X018426Y009830D03*
X018426Y009819D03*
X018426Y009813D03*
X018426Y009808D03*
X018426Y009803D03*
X018426Y009797D03*
X018426Y009792D03*
X018426Y009786D03*
X018426Y009776D03*
X018426Y009770D03*
X018426Y009765D03*
X018426Y009759D03*
X018426Y009754D03*
X018426Y009749D03*
X018426Y009743D03*
X018426Y009732D03*
X018426Y009727D03*
X018426Y009722D03*
X018426Y009716D03*
X018426Y009711D03*
X018426Y009705D03*
X018426Y009700D03*
X018426Y009695D03*
X018426Y009684D03*
X018426Y009678D03*
X018426Y009673D03*
X018426Y009668D03*
X018426Y009662D03*
X018426Y009657D03*
X018426Y009651D03*
X018426Y009641D03*
X018426Y009635D03*
X018426Y009630D03*
X018426Y009921D03*
X018426Y009927D03*
X018431Y008031D03*
D320*
X018431Y008037D03*
X018431Y008042D03*
D321*
X018431Y008058D03*
X018431Y008064D03*
D322*
X018431Y008069D03*
D323*
X018431Y008075D03*
D324*
X018431Y008080D03*
X018431Y008085D03*
D325*
X019692Y008355D03*
X020102Y008129D03*
X020151Y008102D03*
X020162Y008096D03*
X020173Y008091D03*
X020183Y008085D03*
X020194Y008080D03*
X020378Y008080D03*
X020491Y008631D03*
X020480Y008636D03*
X020470Y008642D03*
X020421Y008669D03*
X020410Y008674D03*
X020675Y008636D03*
X020675Y008631D03*
D326*
X020381Y008085D03*
X019382Y011018D03*
D327*
X018431Y008091D03*
D328*
X019687Y008361D03*
X020378Y008091D03*
X020675Y008642D03*
X019984Y008912D03*
D329*
X020381Y008096D03*
D330*
X020378Y008102D03*
X020675Y008652D03*
X019978Y008917D03*
D331*
X019986Y008906D03*
X020300Y008733D03*
X020310Y008728D03*
X020321Y008723D03*
X020332Y008717D03*
X020348Y008706D03*
X020370Y008696D03*
X020381Y008690D03*
X020391Y008685D03*
X020402Y008679D03*
X020429Y008663D03*
X020451Y008652D03*
X020462Y008647D03*
X020094Y008134D03*
X020084Y008139D03*
X020073Y008145D03*
X020062Y008150D03*
X020051Y008156D03*
X020003Y008183D03*
X019992Y008188D03*
X020111Y008123D03*
X020132Y008112D03*
X020143Y008107D03*
D332*
X020378Y008107D03*
X020378Y008112D03*
X020675Y008663D03*
X019978Y008922D03*
X019487Y010915D03*
D333*
X019390Y010953D03*
X020783Y011579D03*
X020821Y011536D03*
X015799Y011131D03*
X015745Y011039D03*
X015653Y008161D03*
X015674Y008118D03*
D334*
X018021Y008161D03*
X018042Y008118D03*
X017216Y009781D03*
X017038Y010143D03*
X017016Y010186D03*
X016995Y010229D03*
X016930Y010364D03*
X016838Y010548D03*
X016817Y010591D03*
X016795Y010634D03*
X016773Y010683D03*
X016752Y010726D03*
X016730Y010769D03*
X016703Y010818D03*
X016682Y010861D03*
X016660Y010904D03*
X016638Y010953D03*
X016617Y010996D03*
X016595Y011039D03*
D335*
X016862Y010499D03*
X016884Y010456D03*
X016906Y010413D03*
X016970Y010278D03*
X017062Y010094D03*
X017105Y010008D03*
X017149Y009916D03*
X017197Y009824D03*
X017235Y009738D03*
X017861Y008474D03*
X017905Y008388D03*
X017953Y008296D03*
X017996Y008204D03*
X018823Y008118D03*
X018844Y008161D03*
X018893Y008253D03*
X018914Y008296D03*
X018936Y008339D03*
X019606Y009689D03*
D336*
X020359Y008701D03*
X020440Y008658D03*
X020040Y008161D03*
X020121Y008118D03*
D337*
X020378Y008118D03*
X019395Y010683D03*
X019438Y010726D03*
X019492Y010904D03*
D338*
X019371Y010996D03*
X021115Y011131D03*
X021142Y011088D03*
X021169Y011039D03*
X021261Y008161D03*
X021239Y008118D03*
X015348Y009376D03*
X015348Y009646D03*
X015353Y009738D03*
D339*
X016857Y010510D03*
X016852Y010521D03*
X016846Y010532D03*
X016814Y010596D03*
X016808Y010607D03*
X016803Y010618D03*
X016895Y010434D03*
X016900Y010424D03*
X016943Y010332D03*
X016981Y010256D03*
X016987Y010245D03*
X016992Y010235D03*
X017030Y010159D03*
X017035Y010148D03*
X017073Y010073D03*
X017078Y010062D03*
X017116Y009986D03*
X017116Y009981D03*
X017122Y009975D03*
X017122Y009970D03*
X017127Y009965D03*
X017165Y009889D03*
X017165Y009884D03*
X017170Y009878D03*
X017208Y009803D03*
X017208Y009797D03*
X017213Y009786D03*
X017219Y009776D03*
X017251Y009711D03*
X017251Y009705D03*
X017257Y009700D03*
X017257Y009695D03*
X017262Y009684D03*
X017845Y008507D03*
X017888Y008420D03*
X017894Y008409D03*
X017926Y008345D03*
X017932Y008334D03*
X017937Y008328D03*
X017937Y008323D03*
X017975Y008247D03*
X017980Y008242D03*
X017980Y008237D03*
X018018Y008166D03*
X018023Y008156D03*
X018029Y008145D03*
X018828Y008129D03*
X018828Y008123D03*
X018833Y008134D03*
X018833Y008139D03*
X018839Y008145D03*
X018839Y008150D03*
X018871Y008210D03*
X018877Y008220D03*
X018882Y008231D03*
X018920Y008307D03*
X018925Y008318D03*
X019595Y009668D03*
X019595Y009673D03*
X019600Y009678D03*
X019600Y009684D03*
X019638Y009754D03*
X019643Y009765D03*
X019649Y009776D03*
D340*
X019325Y010618D03*
X019330Y010623D03*
X019363Y010650D03*
X019368Y010656D03*
X019373Y010661D03*
X019379Y010667D03*
X019384Y010672D03*
X019390Y010677D03*
X019400Y010688D03*
X019406Y010694D03*
X019411Y010699D03*
X019417Y010704D03*
X019422Y010710D03*
X019427Y010715D03*
X019433Y010721D03*
X019444Y010737D03*
X019449Y010742D03*
X019454Y010748D03*
X019681Y008372D03*
X020378Y008123D03*
D341*
X020378Y008129D03*
X019476Y010780D03*
X019481Y010791D03*
X019487Y010802D03*
X019487Y010807D03*
X019492Y010812D03*
X019498Y010829D03*
X019498Y010834D03*
X019498Y010839D03*
X019498Y010845D03*
X019498Y010850D03*
X019498Y010856D03*
X019498Y010866D03*
X019498Y010872D03*
X019498Y010877D03*
X019498Y010883D03*
X019498Y010888D03*
X019384Y011023D03*
D342*
X019495Y010823D03*
X019970Y008933D03*
X020672Y008690D03*
X020672Y008685D03*
X020375Y008134D03*
D343*
X020378Y008139D03*
X019676Y008382D03*
D344*
X020375Y008145D03*
X020672Y008696D03*
D345*
X020378Y008150D03*
X019967Y008939D03*
D346*
X020672Y008706D03*
X020375Y008156D03*
D347*
X020375Y008161D03*
D348*
X020032Y008166D03*
X020011Y008177D03*
X019973Y008199D03*
X019951Y008210D03*
X019940Y008215D03*
X019930Y008220D03*
X019913Y008231D03*
X019903Y008237D03*
X019881Y008247D03*
X019822Y008280D03*
X020129Y008825D03*
X020140Y008820D03*
X020178Y008798D03*
X020200Y008787D03*
X020210Y008782D03*
X020221Y008777D03*
X020232Y008771D03*
X020237Y008766D03*
X020259Y008755D03*
X020270Y008750D03*
D349*
X019965Y008944D03*
X019668Y008393D03*
X020375Y008166D03*
X019279Y010926D03*
D350*
X020248Y008760D03*
X020291Y008739D03*
X020340Y008712D03*
X020021Y008172D03*
X019984Y008193D03*
X019892Y008242D03*
D351*
X020375Y008172D03*
D352*
X020372Y008177D03*
X019665Y008399D03*
X020669Y008728D03*
X020669Y008733D03*
X019271Y010920D03*
D353*
X020375Y008183D03*
D354*
X020372Y008188D03*
X020669Y008739D03*
X019265Y010915D03*
D355*
X021166Y011045D03*
X021172Y011034D03*
X021177Y011023D03*
X021182Y011018D03*
X021188Y011007D03*
X021199Y010985D03*
X021204Y010980D03*
X021204Y010974D03*
X021209Y010969D03*
X021209Y010964D03*
X021215Y010958D03*
X021220Y010947D03*
X021220Y010942D03*
X021226Y010937D03*
X021231Y010926D03*
X021236Y010915D03*
X021247Y010893D03*
X021334Y008323D03*
X021328Y008312D03*
X021323Y008301D03*
X021317Y008291D03*
X021317Y008285D03*
X021312Y008274D03*
X021307Y008264D03*
X021307Y008258D03*
X021301Y008247D03*
X021296Y008242D03*
X021296Y008237D03*
X021290Y008226D03*
X021285Y008215D03*
X021274Y008193D03*
D356*
X020669Y008750D03*
X019957Y008960D03*
X019660Y008409D03*
X020372Y008199D03*
X019260Y010910D03*
X019384Y011028D03*
D357*
X019808Y010094D03*
X019787Y010051D03*
X019765Y010008D03*
X019738Y009959D03*
X019716Y009916D03*
X019695Y009873D03*
X019673Y009824D03*
X019652Y009781D03*
X019630Y009738D03*
X017767Y008658D03*
X017794Y008609D03*
X017816Y008566D03*
X017837Y008523D03*
X018869Y008204D03*
X018960Y008388D03*
X018982Y008431D03*
X019004Y008474D03*
D358*
X019870Y008253D03*
X019962Y008204D03*
X020281Y008744D03*
X020189Y008793D03*
D359*
X020372Y008204D03*
X019255Y010904D03*
D360*
X021193Y010996D03*
X021215Y010953D03*
X021242Y010904D03*
X021339Y008339D03*
X021323Y008296D03*
X021301Y008253D03*
X021280Y008204D03*
D361*
X020669Y008760D03*
X019951Y008966D03*
X020372Y008210D03*
D362*
X019047Y008561D03*
X019041Y008550D03*
X019036Y008539D03*
X019031Y008528D03*
X019025Y008517D03*
X019020Y008507D03*
X019020Y008501D03*
X019014Y008496D03*
X019014Y008490D03*
X019009Y008485D03*
X019009Y008480D03*
X019004Y008469D03*
X018998Y008463D03*
X018998Y008458D03*
X018993Y008453D03*
X018993Y008447D03*
X018987Y008442D03*
X018987Y008436D03*
X018982Y008426D03*
X018977Y008420D03*
X018977Y008415D03*
X018971Y008409D03*
X018971Y008404D03*
X018966Y008399D03*
X018966Y008393D03*
X018955Y008377D03*
X018950Y008366D03*
X018944Y008355D03*
X018939Y008345D03*
X018933Y008334D03*
X018928Y008323D03*
X018923Y008312D03*
X018917Y008301D03*
X018912Y008291D03*
X018906Y008280D03*
X018901Y008269D03*
X018896Y008258D03*
X018890Y008247D03*
X018885Y008237D03*
X018879Y008226D03*
X018874Y008215D03*
X017924Y008350D03*
X017918Y008361D03*
X017913Y008372D03*
X017907Y008382D03*
X017902Y008393D03*
X017897Y008404D03*
X017891Y008415D03*
X017886Y008426D03*
X017880Y008436D03*
X017875Y008447D03*
X017870Y008458D03*
X017864Y008469D03*
X017859Y008480D03*
X017853Y008490D03*
X017848Y008501D03*
X017843Y008512D03*
X017837Y008517D03*
X017832Y008528D03*
X017832Y008534D03*
X017826Y008539D03*
X017826Y008544D03*
X017821Y008550D03*
X017821Y008555D03*
X017816Y008561D03*
X017810Y008571D03*
X017810Y008577D03*
X017805Y008582D03*
X017805Y008588D03*
X017799Y008593D03*
X017799Y008598D03*
X017794Y008604D03*
X017789Y008615D03*
X017789Y008620D03*
X017783Y008625D03*
X017783Y008631D03*
X017778Y008636D03*
X017778Y008642D03*
X017772Y008647D03*
X017772Y008652D03*
X017767Y008663D03*
X017762Y008674D03*
X017265Y009673D03*
X017265Y009678D03*
X019592Y009662D03*
X019592Y009657D03*
X019625Y009727D03*
X019635Y009749D03*
X019641Y009759D03*
X019646Y009770D03*
X019657Y009792D03*
X019662Y009803D03*
X019668Y009813D03*
X019679Y009835D03*
X019679Y009840D03*
X019684Y009846D03*
X019684Y009851D03*
X019689Y009857D03*
X019689Y009862D03*
X019695Y009867D03*
X019700Y009878D03*
X019700Y009884D03*
X019706Y009889D03*
X019706Y009894D03*
X019711Y009900D03*
X019711Y009905D03*
X019716Y009911D03*
X019722Y009921D03*
X019722Y009927D03*
X019727Y009932D03*
X019727Y009938D03*
X019733Y009943D03*
X019733Y009948D03*
X019738Y009954D03*
X019743Y009965D03*
X019743Y009970D03*
X019749Y009975D03*
X019754Y009986D03*
X019760Y009997D03*
X019770Y010019D03*
X019776Y010029D03*
X019781Y010040D03*
X019792Y010062D03*
X019797Y010073D03*
X019803Y010083D03*
X019814Y010105D03*
X019819Y010116D03*
X019824Y010127D03*
X019830Y010137D03*
X019835Y010148D03*
X019841Y010159D03*
X019846Y010170D03*
X019851Y010181D03*
X019857Y010191D03*
X019862Y010202D03*
X019868Y010213D03*
X019873Y010224D03*
D363*
X019249Y010899D03*
X020372Y008220D03*
X020372Y008215D03*
D364*
X019922Y008226D03*
X019862Y008258D03*
X019851Y008264D03*
X019841Y008269D03*
X019830Y008274D03*
X019814Y008285D03*
X019803Y008291D03*
X019781Y008301D03*
X019770Y008307D03*
X019760Y008312D03*
X019722Y008334D03*
X019700Y008345D03*
X019695Y008350D03*
X020078Y008852D03*
X020067Y008858D03*
X020051Y008868D03*
X020040Y008874D03*
X020019Y008885D03*
X019992Y008901D03*
X020089Y008847D03*
X020100Y008841D03*
X020121Y008831D03*
X020148Y008814D03*
X020159Y008809D03*
X020170Y008804D03*
D365*
X019654Y008420D03*
X020372Y008226D03*
D366*
X020370Y008231D03*
X020667Y008782D03*
X020667Y008787D03*
X019943Y008976D03*
X019241Y010888D03*
D367*
X019649Y008426D03*
X020372Y008237D03*
D368*
X017975Y008253D03*
X017932Y008339D03*
X017883Y008431D03*
X017262Y009689D03*
X017170Y009873D03*
X017127Y009959D03*
X017084Y010051D03*
X016949Y010321D03*
D369*
X018426Y011163D03*
X018426Y011169D03*
X018426Y011180D03*
X018426Y011185D03*
X018426Y011190D03*
X018426Y011196D03*
X018426Y011201D03*
X018426Y011207D03*
X018426Y011212D03*
X018426Y011217D03*
X018426Y011228D03*
X018426Y011234D03*
X018426Y011239D03*
X018426Y011244D03*
X018426Y011250D03*
X018426Y011255D03*
X018426Y011261D03*
X018426Y011271D03*
X018426Y011277D03*
X018426Y011282D03*
X018426Y011288D03*
X018426Y011293D03*
X018426Y011298D03*
X018426Y011304D03*
X018426Y011315D03*
X018426Y011320D03*
X018426Y011325D03*
X018426Y011331D03*
X018426Y011336D03*
X018426Y011342D03*
X018426Y011347D03*
X018426Y011352D03*
X018426Y011363D03*
X018426Y011369D03*
X018426Y011374D03*
X018426Y011379D03*
X018426Y011385D03*
X018426Y011390D03*
X018426Y011396D03*
X018426Y011406D03*
X018426Y011412D03*
X018426Y011417D03*
X018426Y011423D03*
X018426Y011428D03*
X018426Y011433D03*
X018426Y011439D03*
X018426Y011450D03*
X018426Y011455D03*
X018426Y011460D03*
X018426Y011466D03*
X018426Y011471D03*
X018426Y011477D03*
X018426Y011482D03*
X018426Y011487D03*
X018426Y011498D03*
X018426Y011504D03*
X018426Y011509D03*
X018426Y011514D03*
X018426Y011520D03*
X018426Y011525D03*
X018426Y011531D03*
X018426Y011541D03*
X018426Y011547D03*
X018426Y011552D03*
X018426Y011558D03*
X018426Y011563D03*
X018426Y011568D03*
X018426Y011574D03*
X018426Y011585D03*
X018426Y011590D03*
X018426Y011595D03*
X018426Y011601D03*
X018426Y011606D03*
X018426Y011612D03*
X018426Y011617D03*
X018426Y011622D03*
X018426Y011633D03*
X018426Y011639D03*
X018426Y011644D03*
X018426Y011649D03*
X018426Y011655D03*
X018426Y011660D03*
X018426Y011666D03*
X018426Y011676D03*
X018426Y011682D03*
X018426Y011687D03*
X018426Y011693D03*
X018426Y011698D03*
X018426Y011703D03*
X018426Y011709D03*
X018426Y011720D03*
X018426Y011725D03*
X018426Y011730D03*
X018426Y011736D03*
X018426Y011741D03*
X018426Y011747D03*
X018426Y011752D03*
X018426Y011757D03*
X018426Y011768D03*
X018426Y011774D03*
X018426Y011779D03*
X018426Y011784D03*
X018426Y011790D03*
X018426Y011795D03*
X018426Y011801D03*
X018426Y011811D03*
X018426Y011817D03*
X018426Y011822D03*
X018426Y011828D03*
X018426Y011833D03*
X018426Y011838D03*
X018426Y011844D03*
X018426Y011855D03*
X018426Y011860D03*
X018426Y011865D03*
X018426Y011871D03*
X018426Y011876D03*
X018426Y011882D03*
X018426Y011887D03*
X018426Y011892D03*
X018426Y011903D03*
X018426Y011909D03*
X018426Y011914D03*
X018426Y011919D03*
X018426Y011925D03*
X018426Y011930D03*
X018426Y011936D03*
X018426Y011946D03*
X018426Y011952D03*
X018426Y011957D03*
X018426Y011963D03*
X018426Y011968D03*
X018426Y011973D03*
X018426Y011979D03*
X018426Y011990D03*
X018426Y011995D03*
X018426Y012000D03*
X018426Y012006D03*
X018426Y012011D03*
X018426Y012017D03*
X018426Y012022D03*
X018426Y012027D03*
X018426Y012038D03*
X018426Y012044D03*
X018426Y012049D03*
X018426Y012054D03*
X018426Y012060D03*
X018426Y012065D03*
X018426Y012071D03*
X018426Y012081D03*
X018426Y012087D03*
X018426Y012092D03*
X018426Y012098D03*
X018426Y012103D03*
X018426Y012108D03*
X018426Y012114D03*
X018426Y012125D03*
X018426Y012130D03*
X018426Y012135D03*
X018426Y012141D03*
X018426Y012146D03*
X018426Y012152D03*
X018426Y012157D03*
X018426Y012162D03*
X018426Y012173D03*
X018426Y012179D03*
X018426Y012184D03*
X018426Y012189D03*
X018426Y012195D03*
X018426Y012200D03*
X018426Y012206D03*
X018426Y012216D03*
X018426Y012222D03*
X018426Y012227D03*
X018426Y012233D03*
X018426Y012238D03*
X018426Y012243D03*
X018426Y012249D03*
X018426Y012260D03*
X018426Y012265D03*
X018426Y012270D03*
X018426Y012276D03*
X018426Y012281D03*
X018426Y012287D03*
X018426Y012292D03*
X018426Y012297D03*
X018426Y012308D03*
X018426Y012314D03*
X018426Y012319D03*
X018426Y012324D03*
X018426Y012330D03*
X018426Y012335D03*
X018426Y012341D03*
X018426Y012351D03*
X018426Y012357D03*
X018426Y012362D03*
X018426Y012368D03*
X018426Y012373D03*
X018426Y012378D03*
X018426Y012384D03*
X018426Y012395D03*
X018426Y012400D03*
X018426Y012405D03*
X018426Y012411D03*
X018426Y012416D03*
X018426Y012422D03*
X018426Y012427D03*
X018426Y012432D03*
X018426Y012443D03*
X018426Y012449D03*
X018426Y012454D03*
X018426Y012459D03*
X018426Y012465D03*
X018426Y012470D03*
X018426Y012476D03*
X018426Y012486D03*
X018426Y012492D03*
X018426Y012497D03*
X021228Y010931D03*
X021234Y010920D03*
X021250Y010888D03*
X021250Y010883D03*
X021255Y010877D03*
X021255Y010872D03*
X021261Y010866D03*
X021266Y010856D03*
X021266Y010850D03*
X021272Y010845D03*
X021272Y010839D03*
X021277Y010834D03*
X021277Y010829D03*
X021293Y010796D03*
X021299Y010785D03*
X021309Y010758D03*
X021315Y010748D03*
X021385Y008458D03*
X021369Y008415D03*
X021369Y008409D03*
X021363Y008404D03*
X021363Y008399D03*
X021363Y008393D03*
X021358Y008382D03*
X021353Y008377D03*
X021353Y008372D03*
X021353Y008366D03*
X021347Y008361D03*
X021347Y008355D03*
X021342Y008350D03*
X021342Y008345D03*
X021336Y008334D03*
X021336Y008328D03*
X021315Y008280D03*
X021309Y008269D03*
D370*
X020111Y008836D03*
X020030Y008879D03*
X019711Y008339D03*
X019792Y008296D03*
D371*
X021326Y008307D03*
X021331Y008318D03*
X021374Y008426D03*
X021380Y008442D03*
X021288Y010807D03*
X021245Y010899D03*
X021239Y010910D03*
X018447Y012746D03*
D372*
X019751Y008318D03*
X020561Y008393D03*
D373*
X020059Y008863D03*
X020011Y008890D03*
X020000Y008895D03*
X019730Y008328D03*
X019741Y008323D03*
X019379Y011012D03*
D374*
X019684Y008366D03*
D375*
X019679Y008377D03*
X020672Y008674D03*
X020672Y008679D03*
X019441Y010731D03*
X019457Y010753D03*
X019463Y010758D03*
X019468Y010764D03*
X019473Y010775D03*
X019479Y010785D03*
X019484Y010796D03*
X019495Y010893D03*
X019495Y010899D03*
D376*
X019673Y008388D03*
D377*
X021358Y008388D03*
X021390Y008474D03*
X021261Y010861D03*
X018426Y011174D03*
X018426Y011223D03*
X018426Y011266D03*
X018426Y011309D03*
X018426Y011358D03*
X018426Y011401D03*
X018426Y011444D03*
X018426Y011493D03*
X018426Y011536D03*
X018426Y011579D03*
X018426Y011628D03*
X018426Y011671D03*
X018426Y011714D03*
X018426Y011763D03*
X018426Y011806D03*
X018426Y011849D03*
X018426Y011898D03*
X018426Y011941D03*
X018426Y011984D03*
X018426Y012033D03*
X018426Y012076D03*
X018426Y012119D03*
X018426Y012168D03*
X018426Y012211D03*
X018426Y012254D03*
X018426Y012303D03*
X018426Y012346D03*
X018426Y012389D03*
X018426Y012438D03*
X018426Y012481D03*
D378*
X020667Y008766D03*
X019657Y008415D03*
D379*
X021371Y008420D03*
X021377Y008436D03*
X021382Y008447D03*
X021382Y008453D03*
X021388Y008463D03*
X021388Y008469D03*
X021393Y008480D03*
X021393Y008485D03*
X021398Y008490D03*
X021398Y008496D03*
X021398Y008501D03*
X021404Y008507D03*
X021404Y008512D03*
X021404Y008517D03*
X021409Y008528D03*
X021409Y008534D03*
X021415Y008539D03*
X021415Y008544D03*
X021415Y008550D03*
X021420Y008555D03*
X021420Y008561D03*
X021425Y008577D03*
X021425Y008582D03*
X021431Y008593D03*
X021431Y008598D03*
X021436Y008615D03*
X021442Y008631D03*
X021447Y008647D03*
X021452Y008669D03*
X021371Y010607D03*
X021366Y010618D03*
X021366Y010623D03*
X021355Y010645D03*
X021355Y010650D03*
X021350Y010661D03*
X021344Y010672D03*
X021344Y010677D03*
X021339Y010688D03*
X021339Y010694D03*
X021334Y010699D03*
X021334Y010704D03*
X021328Y010710D03*
X021328Y010715D03*
X021328Y010721D03*
X021323Y010731D03*
X021317Y010737D03*
X021317Y010742D03*
X021312Y010753D03*
X021307Y010764D03*
X021301Y010775D03*
X021301Y010780D03*
X021296Y010791D03*
X021290Y010802D03*
X021285Y010812D03*
X021280Y010823D03*
X019373Y011001D03*
D380*
X021282Y010818D03*
X021374Y008431D03*
D381*
X019589Y009651D03*
X019768Y010013D03*
X019773Y010024D03*
X019778Y010035D03*
X019784Y010046D03*
X019789Y010056D03*
X019811Y010100D03*
X019816Y010110D03*
X019822Y010121D03*
X019827Y010132D03*
X019859Y010197D03*
X019865Y010208D03*
X019870Y010218D03*
X019903Y010283D03*
X019908Y010289D03*
X019908Y010294D03*
X019913Y010299D03*
X019913Y010305D03*
X019919Y010310D03*
X019919Y010316D03*
X019924Y010326D03*
X019946Y010370D03*
X019951Y010375D03*
X019951Y010380D03*
X019957Y010386D03*
X019957Y010391D03*
X019962Y010397D03*
X019962Y010402D03*
X019967Y010407D03*
X019994Y010461D03*
X019994Y010467D03*
X020000Y010472D03*
X020000Y010478D03*
X020005Y010483D03*
X020011Y010494D03*
X019136Y008733D03*
X019114Y008696D03*
X019114Y008690D03*
X019109Y008685D03*
X019109Y008679D03*
X019103Y008674D03*
X019103Y008669D03*
X019098Y008663D03*
X019093Y008652D03*
X019093Y008647D03*
X019066Y008598D03*
X019066Y008593D03*
X019060Y008588D03*
X019060Y008582D03*
X019055Y008577D03*
X019055Y008571D03*
X019022Y008512D03*
X017764Y008669D03*
X017759Y008679D03*
X017753Y008685D03*
X017753Y008690D03*
X017748Y008696D03*
X017743Y008706D03*
X017743Y008712D03*
X017267Y009662D03*
X017267Y009668D03*
D382*
X021307Y010769D03*
X021323Y010726D03*
X021361Y010634D03*
X021377Y010591D03*
X021436Y008609D03*
X021420Y008566D03*
X021409Y008523D03*
D383*
X019589Y009646D03*
X019832Y010143D03*
X019876Y010229D03*
X019903Y010278D03*
X019924Y010321D03*
X019946Y010364D03*
X019967Y010413D03*
X019098Y008658D03*
X019049Y008566D03*
X017748Y008701D03*
D384*
X021385Y010564D03*
X021385Y010569D03*
X021385Y010575D03*
X021380Y010580D03*
X021380Y010586D03*
X021374Y010596D03*
X021374Y010602D03*
X021369Y010613D03*
X021412Y010494D03*
X021412Y010488D03*
X021417Y010478D03*
X021417Y010472D03*
X021423Y010461D03*
X021428Y010440D03*
X021471Y008739D03*
X021471Y008733D03*
X021466Y008723D03*
X021466Y008717D03*
X021466Y008712D03*
X021461Y008706D03*
X021461Y008696D03*
X021461Y008690D03*
X021455Y008685D03*
X021455Y008679D03*
X021455Y008674D03*
X021428Y008588D03*
X021423Y008571D03*
D385*
X021434Y008604D03*
X021439Y008620D03*
X021439Y008625D03*
X021444Y008636D03*
X021444Y008642D03*
X021450Y008652D03*
X021450Y008663D03*
X021477Y008755D03*
X021477Y008760D03*
X021477Y008766D03*
X021482Y008777D03*
X021482Y008782D03*
X021482Y008787D03*
X021488Y008798D03*
X021488Y008804D03*
X021488Y008809D03*
X021493Y008825D03*
X021493Y008831D03*
X021498Y008852D03*
X021450Y010370D03*
X021439Y010407D03*
X021434Y010424D03*
X021407Y010505D03*
X021407Y010510D03*
X021401Y010521D03*
X021401Y010526D03*
X021396Y010537D03*
X021396Y010542D03*
X021390Y010553D03*
X021390Y010559D03*
X021363Y010629D03*
X021358Y010640D03*
X021353Y010656D03*
X021347Y010667D03*
D386*
X019473Y010926D03*
X020672Y008647D03*
D387*
X020672Y008658D03*
D388*
X021450Y008658D03*
X021390Y010548D03*
X021342Y010683D03*
D389*
X019490Y010910D03*
X019355Y010645D03*
X019349Y010640D03*
X019338Y010629D03*
X019317Y010613D03*
X019311Y010607D03*
X020672Y008669D03*
D390*
X020669Y008701D03*
D391*
X020669Y008712D03*
D392*
X020669Y008717D03*
X020669Y008723D03*
X019962Y008949D03*
D393*
X020667Y008744D03*
D394*
X020667Y008755D03*
D395*
X020667Y008771D03*
X020667Y008777D03*
X019247Y010893D03*
D396*
X017483Y008793D03*
X015772Y011088D03*
D397*
X021409Y010499D03*
X021436Y010413D03*
X021452Y010364D03*
X021463Y010321D03*
X021474Y010278D03*
X021485Y010229D03*
X021496Y010186D03*
X021523Y010051D03*
X021560Y009284D03*
X021528Y009014D03*
X021523Y008971D03*
X021512Y008928D03*
X021496Y008836D03*
X021485Y008793D03*
D398*
X017451Y008928D03*
X020399Y011941D03*
D399*
X019468Y010769D03*
X019976Y008928D03*
D400*
X019417Y008949D03*
X019417Y008955D03*
X017440Y008966D03*
X016447Y011887D03*
D401*
X019959Y008955D03*
D402*
X017440Y008971D03*
X016403Y011849D03*
D403*
X019949Y008971D03*
D404*
X021525Y008993D03*
X021542Y009095D03*
X021542Y009101D03*
X021547Y009133D03*
X021547Y009138D03*
X021547Y009144D03*
X021547Y009155D03*
X021552Y009176D03*
X021552Y009182D03*
X021552Y009187D03*
X021552Y009192D03*
X021552Y009203D03*
X021552Y009209D03*
X021558Y009225D03*
X021558Y009230D03*
X021558Y009236D03*
X021558Y009246D03*
X021558Y009252D03*
X021558Y009257D03*
X021558Y009263D03*
X021558Y009268D03*
X021558Y009273D03*
X021558Y009279D03*
X021563Y009290D03*
X021563Y009295D03*
X021563Y009300D03*
X021563Y009306D03*
X021563Y009311D03*
X021563Y009317D03*
X021563Y009322D03*
X021563Y009327D03*
X021563Y009338D03*
X021563Y009344D03*
X021563Y009349D03*
X021563Y009354D03*
X021563Y009360D03*
X021563Y009365D03*
X021569Y009387D03*
X021569Y009392D03*
X021569Y009398D03*
X021569Y009403D03*
X021569Y009408D03*
X021569Y009414D03*
X021569Y009425D03*
X021569Y009430D03*
X021569Y009435D03*
X021569Y009441D03*
X021569Y009446D03*
X021569Y009452D03*
X021569Y009457D03*
X021569Y009462D03*
X021569Y009473D03*
X021569Y009479D03*
X021569Y009484D03*
X021569Y009489D03*
X021569Y009495D03*
X021569Y009500D03*
X021569Y009506D03*
X021569Y009516D03*
X021569Y009522D03*
X021569Y009527D03*
X021569Y009533D03*
X021569Y009538D03*
X021569Y009543D03*
X021569Y009549D03*
X021569Y009560D03*
X021569Y009565D03*
X021569Y009570D03*
X021569Y009576D03*
X021569Y009581D03*
X021569Y009587D03*
X021569Y009592D03*
X021569Y009597D03*
X021569Y009608D03*
X021569Y009614D03*
X021569Y009619D03*
X021569Y009624D03*
X021569Y009630D03*
X021563Y009668D03*
X021563Y009673D03*
X021563Y009678D03*
X021563Y009684D03*
X021563Y009695D03*
X021563Y009700D03*
X021563Y009705D03*
X021563Y009711D03*
X021563Y009716D03*
X021563Y009722D03*
X021563Y009727D03*
X021563Y009732D03*
X021558Y009754D03*
X021558Y009759D03*
X021558Y009765D03*
X021558Y009770D03*
X021558Y009776D03*
X021558Y009786D03*
X021558Y009792D03*
X021558Y009797D03*
X021558Y009803D03*
X021552Y009819D03*
X021552Y009830D03*
X021552Y009835D03*
X021552Y009840D03*
X021552Y009846D03*
X021552Y009851D03*
X021552Y009857D03*
X021547Y009867D03*
X021547Y009878D03*
X021547Y009884D03*
X021547Y009889D03*
X021547Y009894D03*
X021547Y009900D03*
X021547Y009905D03*
X021542Y009911D03*
X021542Y009921D03*
X021542Y009927D03*
X021542Y009932D03*
X021542Y009938D03*
X021542Y009943D03*
X021525Y010024D03*
X021525Y010029D03*
X021525Y010035D03*
X021525Y010040D03*
X021525Y010046D03*
X021520Y010056D03*
X021520Y010062D03*
X021520Y010067D03*
X021520Y010073D03*
X021515Y010089D03*
X021515Y010100D03*
X021515Y010105D03*
X021509Y010116D03*
X021509Y010121D03*
X021509Y010127D03*
X021504Y010148D03*
X021504Y010154D03*
X021498Y010170D03*
X021498Y010175D03*
X021498Y010181D03*
X021477Y010267D03*
X021471Y010289D03*
X021466Y010310D03*
D405*
X019454Y009101D03*
X017402Y009117D03*
X017402Y009122D03*
X016771Y012125D03*
D406*
X019454Y009106D03*
D407*
X021542Y009106D03*
X021547Y009149D03*
X021552Y009198D03*
X021558Y009241D03*
X021563Y009333D03*
X021569Y009419D03*
X021569Y009468D03*
X021569Y009511D03*
X021569Y009554D03*
X021569Y009603D03*
X021563Y009689D03*
X021558Y009781D03*
X021552Y009824D03*
X021547Y009873D03*
X021542Y009916D03*
X021515Y010094D03*
X021504Y010143D03*
D408*
X019465Y009149D03*
X016841Y012168D03*
D409*
X016852Y012173D03*
X017392Y009165D03*
X017392Y009160D03*
D410*
X019476Y009198D03*
X016916Y012211D03*
D411*
X017373Y009241D03*
D412*
X019487Y009241D03*
D413*
X017362Y009284D03*
D414*
X019498Y009284D03*
D415*
X019503Y009300D03*
X019503Y009306D03*
X017354Y009317D03*
X017354Y009322D03*
X017073Y012292D03*
X017084Y012297D03*
D416*
X019735Y012341D03*
X019508Y009327D03*
X019508Y009322D03*
X017348Y009338D03*
X017348Y009344D03*
D417*
X017351Y009333D03*
X017092Y012303D03*
D418*
X019722Y012346D03*
X019511Y009333D03*
D419*
X019511Y009338D03*
X017346Y009349D03*
X017346Y009354D03*
X017119Y012314D03*
D420*
X017141Y012324D03*
X018447Y012735D03*
X019695Y012357D03*
X019517Y009360D03*
X019517Y009354D03*
X017340Y009371D03*
D421*
X019373Y011007D03*
X021550Y009862D03*
X021555Y009813D03*
X021555Y009808D03*
X021560Y009749D03*
X021560Y009743D03*
X021566Y009662D03*
X021566Y009657D03*
X021566Y009651D03*
X021566Y009641D03*
X021566Y009635D03*
X021566Y009381D03*
X021566Y009371D03*
D422*
X017340Y009376D03*
D423*
X019522Y009376D03*
D424*
X021566Y009376D03*
X021566Y009646D03*
X021560Y009738D03*
D425*
X015388Y010051D03*
X015345Y009603D03*
X015345Y009554D03*
X015345Y009511D03*
X015345Y009468D03*
X015345Y009419D03*
D426*
X017330Y009419D03*
D427*
X019533Y009419D03*
D428*
X017324Y009435D03*
X017324Y009441D03*
D429*
X017316Y009468D03*
D430*
X019544Y009468D03*
D431*
X019552Y009495D03*
X019552Y009500D03*
X017305Y009516D03*
D432*
X017305Y009511D03*
D433*
X017300Y009533D03*
X017300Y009538D03*
X019557Y009522D03*
X019557Y009516D03*
X019552Y012411D03*
D434*
X017294Y009554D03*
D435*
X019565Y009554D03*
D436*
X019568Y009560D03*
X019568Y009565D03*
X017289Y009576D03*
X017289Y009581D03*
X019519Y012422D03*
D437*
X019576Y009597D03*
X019576Y009592D03*
X017281Y009608D03*
X017281Y009614D03*
D438*
X017284Y009603D03*
D439*
X019579Y009603D03*
D440*
X019581Y009614D03*
X019581Y009619D03*
X017276Y009630D03*
X017276Y009635D03*
D441*
X017270Y009651D03*
X017270Y009657D03*
X019587Y009641D03*
X019587Y009635D03*
X020008Y010488D03*
X020013Y010505D03*
X020019Y010510D03*
X020019Y010515D03*
X020024Y010521D03*
X020024Y010526D03*
X020030Y010532D03*
X020030Y010537D03*
X020035Y010542D03*
X020040Y010553D03*
X020040Y010559D03*
X020046Y010564D03*
X020046Y010569D03*
X020051Y010575D03*
X020051Y010580D03*
X020057Y010586D03*
X020062Y010596D03*
X020062Y010602D03*
X020067Y010607D03*
X020067Y010613D03*
X020073Y010618D03*
X020073Y010623D03*
X020078Y010629D03*
X020084Y010640D03*
X020084Y010645D03*
X020089Y010650D03*
X020089Y010656D03*
X020094Y010661D03*
X020094Y010667D03*
X020100Y010672D03*
X020100Y010677D03*
X020105Y010688D03*
X020111Y010694D03*
X020111Y010699D03*
X020116Y010704D03*
X020116Y010710D03*
X020121Y010715D03*
X020121Y010721D03*
X020127Y010731D03*
X020132Y010737D03*
X020138Y010748D03*
X020143Y010758D03*
X020154Y010780D03*
X020159Y010791D03*
X020165Y010802D03*
X020170Y010812D03*
X020175Y010823D03*
X020181Y010834D03*
X020186Y010845D03*
X020192Y010856D03*
X020197Y010866D03*
X020202Y010877D03*
X020208Y010888D03*
X020213Y010899D03*
X020219Y010910D03*
X020224Y010920D03*
X020229Y010931D03*
X020235Y010942D03*
X020246Y010964D03*
X020251Y010974D03*
X020256Y010985D03*
X020294Y011061D03*
D442*
X020286Y011039D03*
X020264Y010996D03*
X020216Y010904D03*
X020194Y010861D03*
X020173Y010818D03*
X017273Y009646D03*
D443*
X020013Y010499D03*
X020035Y010548D03*
X020057Y010591D03*
X020078Y010634D03*
X020105Y010683D03*
X020127Y010726D03*
X020148Y010769D03*
X020240Y010953D03*
X019468Y012438D03*
D444*
X019344Y010634D03*
D445*
X020156Y010785D03*
X020162Y010796D03*
X020205Y010883D03*
X020248Y010969D03*
X020254Y010980D03*
X020291Y011050D03*
X020291Y011055D03*
D446*
X019498Y010861D03*
X019492Y010818D03*
D447*
X019484Y010920D03*
D448*
X016587Y011061D03*
D449*
X018434Y011066D03*
D450*
X018434Y011072D03*
X018434Y011077D03*
D451*
X018434Y011082D03*
D452*
X018434Y011088D03*
D453*
X018434Y011093D03*
X018434Y011099D03*
D454*
X018434Y011104D03*
X018434Y011109D03*
D455*
X018434Y011115D03*
X018434Y011120D03*
D456*
X018434Y011126D03*
D457*
X018434Y011131D03*
D458*
X018434Y011136D03*
X018434Y011142D03*
D459*
X018434Y011147D03*
X018434Y011153D03*
X018434Y011158D03*
D460*
X016493Y011925D03*
D461*
X016568Y011984D03*
D462*
X020345Y011984D03*
D463*
X020073Y012168D03*
X016698Y012076D03*
D464*
X019997Y012211D03*
D465*
X017300Y012389D03*
D466*
X017446Y012438D03*
D467*
X017465Y012443D03*
D468*
X017502Y012454D03*
D469*
X017521Y012459D03*
D470*
X017546Y012465D03*
X019322Y012476D03*
D471*
X019368Y012465D03*
D472*
X017616Y012481D03*
D473*
X019295Y012481D03*
D474*
X018447Y012519D03*
D475*
X018447Y012524D03*
D476*
X018447Y012567D03*
D477*
X018447Y012573D03*
D478*
X018450Y012611D03*
D479*
X018447Y012616D03*
D480*
X018447Y012632D03*
D481*
X018447Y012654D03*
D482*
X018447Y012659D03*
D483*
X018447Y012670D03*
D484*
X018447Y012708D03*
D485*
X018450Y012719D03*
D486*
X010525Y009017D03*
D487*
X010525Y008017D03*
X010525Y007017D03*
X010525Y006017D03*
X013525Y006017D03*
X013525Y007017D03*
X013525Y008017D03*
X013525Y009017D03*
D488*
X013025Y010517D03*
X011025Y010517D03*
X009025Y009417D03*
X007525Y007417D03*
X006525Y007417D03*
X004025Y009417D03*
X002525Y007417D03*
X001525Y007417D03*
X004025Y005417D03*
X005525Y004217D03*
X006525Y004217D03*
X009025Y005417D03*
X010525Y004217D03*
X011525Y004217D03*
X015525Y004217D03*
X016525Y004217D03*
X020525Y004217D03*
X001525Y004217D03*
D489*
X001945Y001327D02*
X002545Y001327D01*
X004505Y001327D02*
X005105Y001327D01*
X006945Y001327D02*
X007545Y001327D01*
X009505Y001327D02*
X010105Y001327D01*
X011945Y001327D02*
X012545Y001327D01*
X014505Y001327D02*
X015105Y001327D01*
X016945Y001327D02*
X017545Y001327D01*
X019505Y001327D02*
X020105Y001327D01*
X020105Y003107D02*
X019505Y003107D01*
X017545Y003107D02*
X016945Y003107D01*
X015105Y003107D02*
X014505Y003107D01*
X012545Y003107D02*
X011945Y003107D01*
X010105Y003107D02*
X009505Y003107D01*
X007545Y003107D02*
X006945Y003107D01*
X005105Y003107D02*
X004505Y003107D01*
X002545Y003107D02*
X001945Y003107D01*
D490*
X001325Y010017D03*
X001325Y011017D03*
X001325Y012017D03*
X001325Y013017D03*
D491*
X017782Y013638D03*
X018982Y013638D03*
X018982Y005438D03*
X017782Y005438D03*
D492*
X012281Y007517D03*
X011769Y007517D03*
D493*
X011725Y007517D01*
X010625Y008617D01*
X002725Y008617D01*
X001325Y010017D01*
X001325Y011017D02*
X002525Y009817D01*
X011725Y009817D01*
X013525Y008017D01*
X013525Y007617D02*
X012725Y007617D01*
X011325Y009017D01*
X010525Y009017D01*
X012281Y007517D02*
X012325Y007517D01*
X012825Y007017D01*
X013525Y007017D01*
X013925Y007217D02*
X013925Y007637D01*
X013925Y009817D01*
X013925Y011087D01*
X014515Y011677D01*
X016476Y013638D01*
X017782Y013638D01*
X018982Y013638D01*
X013025Y010517D02*
X012625Y010917D01*
X002425Y010917D01*
X001325Y012017D01*
X000825Y012517D02*
X000825Y007417D01*
X001525Y007417D01*
X001525Y007017D01*
X006125Y007017D01*
X006525Y007417D01*
X006925Y004617D02*
X006525Y004217D01*
X005525Y004217D01*
X006925Y004617D02*
X012125Y004617D01*
X013525Y006017D01*
X014485Y006657D02*
X013925Y007217D01*
X013925Y007617D02*
X013525Y007617D01*
X013925Y007617D02*
X013925Y007637D01*
X014485Y006657D02*
X015704Y005438D01*
X017782Y005438D01*
X018982Y005438D01*
X016525Y004217D02*
X015525Y004217D01*
X014805Y003107D02*
X014725Y003117D01*
X012325Y003117D01*
X012245Y003107D01*
X011525Y004217D02*
X010525Y004217D01*
X009805Y003107D02*
X009725Y003117D01*
X007325Y003117D01*
X007245Y003107D01*
X004805Y003107D02*
X004725Y003117D01*
X002325Y003117D01*
X002245Y003107D01*
X001525Y004217D02*
X001525Y007017D01*
X000825Y012517D02*
X001325Y013017D01*
X014485Y006657D02*
X014525Y006617D01*
X017245Y003107D02*
X017325Y003117D01*
X019725Y003117D01*
X019805Y003107D01*
X019805Y001327D02*
X019725Y001317D01*
X017325Y001317D01*
X017245Y001327D01*
X017225Y001317D01*
X014825Y001317D01*
X014805Y001327D01*
X014725Y001317D01*
X012325Y001317D01*
X012245Y001327D01*
X012225Y001317D01*
X009825Y001317D01*
X009805Y001327D01*
X009725Y001317D01*
X007325Y001317D01*
X007245Y001327D01*
X007225Y001317D01*
X004825Y001317D01*
X004805Y001327D01*
X004725Y001317D01*
X002325Y001317D01*
X002245Y001327D01*
M02*
